<?xml version="1.0" encoding="UTF-8"?>
<svg id="a" data-name="Layer 1" xmlns="http://www.w3.org/2000/svg" viewBox="0 0 442.75 449.48">
  <defs>
    <style>
      .b {
        fill: #5d9147;
      }

      .b, .c, .d, .e, .f, .g, .h, .i {
        stroke-width: 0px;
      }

      .c {
        fill: #a1c971;
      }

      .d {
        fill: #142e3b;
      }

      .e {
        fill: #142e3c;
      }

      .f {
        fill: #8ab55f;
      }

      .g {
        fill: #fef5a8;
      }

      .h {
        fill: #fccd1b;
      }

      .i {
        fill: #e8a60b;
      }
    </style>
  </defs>
  <path class="d" d="m363.47,362l.68-.64c11.63-8.97,23.38-17.81,32.82-29.24,2.45-2.38,4.9-4.77,7.35-7.15,3.63-3.99,7.37-7.9,10.86-12,3.37-3.96,6.87-7.89,9.65-12.26,5.38-8.45,10.29-17.19,15.4-25.81.15-.21.29-.43.44-.64.06-.2.11-.4.17-.6.44-.75.98-1.47,1.31-2.27,1.29-3.1.56-4.21-2.79-4.41-1.98-.12-3.95-.29-5.93-.44-3.2-.02-6.4-.04-9.59-.06-.85,0-1.71,0-2.56,0-7.46.21-14.94.27-22.39.68-3.7.2-7.36,1.05-11.04,1.61-3.29.53-6.57,1.25-9.88,1.53-2.97.25-3.69,1.86-4.06,4.49-.82,5.91-1.5,11.9-3.11,17.62-2.22,7.88-5.24,15.53-7.91,23.28-.21.2-.41.4-.62.6l-.09.09.06-.11c.2-.2.4-.41.61-.61.4-.06.87,0,1.18-.21,6.51-4.28,13.04-8.54,19.45-12.97.91-.63,1.18-2.19,1.75-3.31.68-1.48,1.35-2.96,2.03-4.44.21-.52.42-1.04.63-1.57l-.04.05c.23-.22.45-.44.68-.66l-.04.08c.21-.43.41-.87.62-1.3l.04.11c.43-.62.86-1.23,1.29-1.85l-.08.03,1.31-1.81-.17-.08c.21-.22.42-.43.64-.65l-.04.03c.22-.22.44-.44.66-.65l-.02.08c.45-.6.9-1.19,1.35-1.79,0,0-.15-.07-.15-.07.21-.22.42-.43.64-.65l-.04.03c.22-.22.44-.43.66-.65v.1c.78-.33,1.56-.67,2.33-1-2.65,3.97-5.3,7.93-7.95,11.9-.88,1.83-1.76,3.65-2.64,5.48.25.18.5.36.75.55,5.32-3.3,10.64-6.6,15.96-9.89,6.1-3.36,12.16-6.8,18.32-10.06,4.19-2.21,8.51-4.16,12.77-6.22-.22.31-.36.73-.66.91-12.18,7.64-24.38,15.26-36.57,22.89-.96.6-1.88,1.26-2.82,1.9l.28.69c3.82-.25,7.64-.5,11.46-.75.02.21.04.43.05.64-3.38.41-6.75.81-10.13,1.22-2.52.55-5.39.5-7.49,1.76-6.96,4.15-13.76,8.58-20.39,13.25-5.51,3.88-11,7.93-14.46,14.79,5.87,1.29,11.56,2.54,17.26,3.79.02.14.05.29.08.43-5.55-.29-11.14-.24-16.61-1.02-2.41-.34-3.58-.03-4.99,1.83-7.01,9.25-15.22,17.33-24.58,24.21-9.94,7.67-20.91,13.55-32.34,18.62-1.37.53-2.75,1.07-4.12,1.6.04.2.09.4.13.61,1.56.12,3.11.25,4.67.37,2.66.43,5.3,1.11,7.97,1.24,10.17.47,20.2-.6,30.1-3.05,12.07-2.99,23.33-7.36,31.34-17.56l-.06.02c.22-.22.44-.44.66-.66,0,0-.05.05-.05.05Zm-323.99,14.01s-.05-.04-.05-.04c.22.22.43.44.65.65,0,0-.04-.04-.04-.04.21.43.42.85.63,1.28,0,0-.03-.07-.03-.07.22.22.44.43.66.65l-.04-.03c.21.22.42.43.64.65,0,0-.04-.04-.04-.04.21.42.42.85.64,1.27l-.03-.06c.22.22.44.44.66.65,0,0-.14.07-.14.07,2.92,3.69,5.7,7.49,8.8,11.03,3.76,4.31,7.52,8.69,11.78,12.48,4.11,3.66,8.85,6.61,13.31,9.88,8.68,6.36,17.99,11.68,28,15.54,7.7,2.97,15.66,5.35,23.64,7.49,8.11,2.17,16.49,2.63,24.86,3.36,9.54.84,18.78-.11,27.98-2.09,4.64-1,9.21-2.48,13.68-4.09,4.86-1.75,9.87-3.41,14.27-6.02,8.43-4.99,16.26-10.91,21.44-19.52,2.02-3.35,3.56-6.98,5.33-10.49,1.05-2.63,2.11-5.26,3.16-7.88-.28-.21-.56-.42-.84-.63-.64.02-1.28.03-1.92.05-4.74-.24-9.49-.47-14.23-.71-2.35-.35-4.69-.82-7.06-1.03-2.28-.2-4.65-.51-6.87-.11-11.92,2.16-23.76,4.81-35.71,6.73-13.38,2.15-26.83,1.35-40.23-.39-5.59-.73-11.17-1.46-16.76-2.18-.42.11-.83.21-1.25.32-1.43-.46-2.87-.92-4.3-1.38-.38-.03-.76-.06-1.13-.09-11.89-3.06-23.83-5.96-35.66-9.25-8.16-2.26-16.16-5.05-24.24-7.6l.25-.85c1.13.3,2.26.62,3.4.89,7.17,1.72,14.33,3.44,21.5,5.16,3.21.86,6.39,1.81,9.62,2.55,6.11,1.39,12.27,2.57,18.36,4.01,6.05,1.44,12.24,2.07,18.36,3.02,10.23,1.58,20.6,2.89,30.93,3.03,9.53.13,19.09-1.42,28.63-2.23,6.88-1.4,13.76-2.8,20.64-4.21-.03-.24-.07-.49-.1-.73-2.59-.78-5.17-1.55-7.76-2.33-1.73-.56-3.5-1.04-5.18-1.71-18.92-7.55-35.71-18.42-49.46-33.47-3.92-4.29-7.54-6.12-12.94-4.25-4.63.54-9.26,1.11-13.9,1.63-16.7,1.86-33.44,3.55-49.69,8.08-5.26,1.46-10.36,3.54-15.53,5.34-1,.4-2,.81-3.01,1.21-.22.06-.45.12-.67.18-.59.35-1.18.69-1.77,1.04-.22.06-.44.12-.66.18-1.22.75-2.44,1.49-3.66,2.24,0,0,.03-.03.03-.03-.18.22-.37.44-.55.65,0,0-.03.09-.03.09-.49.76-.98,1.51-1.47,2.27.03.66.06,1.31.1,1.97.82,1.45,1.64,2.89,2.46,4.34,0,0,.03-.13.03-.13.42.83.85,1.65,1.27,2.48.19.19.37.37.56.56.22.21.45.43.67.64ZM13.83,242.63c.22.4.44.81.67,1.21,2.8,10.39,6.92,20.26,12.92,29.17,4.64,6.9,9.47,13.78,15.05,19.91,10.63,11.69,22.7,21.62,37.67,27.52,9.09,3.58,18.37,6.28,28.18,6.83l-.05-.04c.18.17.36.33.54.5,4.23-.16,8.46-.31,12.36-.45-4.56-10.12-8.89-19.78-13.33-29.38-.29-.62-1.54-1.22-2.26-1.14-5.01.55-10,1.29-15,1.97-5.82-.47-11.73-.47-17.43-1.54-5.04-.94-9.87-3.06-14.79-4.66,6.12,1.17,12.21,2.59,18.38,3.43,4,.55,8.12.25,12.18.33,4.7-.54,9.42-.92,14.08-1.68,3.15-.51,3.81-1.69,2.24-4.36-4.1-6.95-8.5-13.72-12.78-20.56-.56-.9-1.12-1.8-1.68-2.7-.25-.22-.51-.44-.76-.66l.02.02c-.11-.38-.13-.83-.35-1.12-7.4-9.87-14.81-19.73-22.26-29.55-.37-.49-1.15-.68-1.74-1.01h0c-1.99-2.46-3.98-4.92-5.98-7.38l-.04-.03c-3.74-4.06-6.39-9.31-11.32-10.87-.33-1.17-.31-1.95-.69-2.34-8.18-8.38-16.41-16.71-24.62-25.05-.2-.21-.4-.42-.6-.64l.03.02c-1.02-1.11-2.04-2.21-3.06-3.32-.01-.2-.12-.31-.31-.34l-4.06-4.77c.11-.11.22-.22.33-.33,3.12,2.57,6.36,5,9.33,7.72,9.25,8.46,18.39,17.03,27.57,25.56.74.96,1.38,2.02,2.23,2.86,15.23,15.13,28.3,32.02,40.36,49.71,2.35,3.44,4.61,6.94,6.57,9.91-.17-9.86-.78-20.09-.39-30.28.28-7.21,1.82-14.37,2.97-21.53.53-3.31,2.15-6.68-1.91-8.94-.05-.58.11-1.39-.21-1.68-.3-.27-1.09.01-1.67.05-2.01-1.69-4.02-3.38-6.03-5.08-.01-.68-.02-1.36-.03-2.04-.57.24-1.13.49-1.7.73-.81-.4-1.61-.79-2.42-1.19-2.62-2.1-5.07-4.46-7.88-6.25-15.32-9.77-31.1-18.69-48.32-24.74-8.2-2.88-16.55-5.35-24.83-8-1.7-.51-3.39-1.1-5.12-1.51-2.75-.65-4.14.33-3.89,3.18.67,7.45,1.37,14.91,2.5,22.3,1.39,9.13,3.14,18.22,4.9,27.29.82,4.26,2.01,8.45,3.04,12.68.12.42.24.84.36,1.26.48,1.81.95,3.62,1.43,5.44.13.42.27.84.4,1.27,0,.21.04.4.16.58.2.61.39,1.23.59,1.84.15.63.3,1.25.44,1.88h-.01Zm94-68.61l.08-.06c1.12-.65,2.24-1.29,3.35-1.94l.21-.11c5.38-3.3,10.56-6.83,13.98-12.35.8.09,1.67,0,2.38.29,1.65.68,3.23,1.54,4.84,2.33h-.01c-1.28-2.82-3.41-4.42-6.58-4.51.84-5.54.66-5.81-4.95-7.24-.92-.72-1.74-1.63-2.77-2.12-1.02-.49-2.24-.56-3.37-.82-1.18-.79-2.37-1.58-3.55-2.37-3.02-1.67-6.04-3.35-9.07-5.02-2.87-.78-5.7-1.94-8.62-2.26-10.65-1.17-19.98,2.33-28.78,8.19-7.08,4.71-12.76,11.5-21.1,14.37-.11.04.03.81.05,1.24.15.19.3.38.45.57l-.03-.05c4.64,3.26,9.27,6.52,13.91,9.79,10.96,6.12,22.53,9.72,35.15,7.15,4.54-.93,8.82-3.13,13.22-4.75.4-.11.8-.23,1.2-.34Zm245.04,203.93c-3.39,3.94-3.38,5.97.07,8.18.1.27.2.55.3.82.08.41.16.82.24,1.23.11.58.21,1.17.32,1.75-2.69-.43-5.37-.86-8.54-1.36,1.95,4,7.05,4.39,9.08,1.48,5.02,1.5,9.97,1.28,15.08.14,10.91-2.43,18.45-8.62,21.99-19.2,1.29-3.86,1.61-8.05,2.37-12.09.22-3.93.44-7.86.66-11.79-1.06-1.09-1.04-1.07-2.5.02-4.71,3.5-9.62,6.76-14.1,10.53-5.54,4.65-10.74,9.72-16.08,14.61-2.07,1.59-4.14,3.18-6.2,4.78-.89.29-1.79.59-2.68.88Zm-38.47-296.14c-3.73,3.03-7.57,5.95-11.17,9.13-5.56,4.91-10.95,10.01-16.8,15.38,1.1.21,1.64.31,2.17.41h29.33c.02.31.04.62.06.94-5.98.69-11.94,1.68-17.94,1.98-4.81.23-9.67-.38-14.5-.62-.94.28-2.1.32-2.79.9-3.32,2.79-6.51,5.74-9.76,8.62-2.22,1.97-4.46,3.9-6.97,6.1,1.28.41,2.03.7,2.8.88,10.55,2.57,20.73,6.23,30.32,11.31,5.52,2.93,10.77,6.35,16.14,9.56,1.49,1.19,3.04,2.3,4.45,3.58,1.52,1.39,2.85,1.39,4.04-.27,3.27-4.55,6.5-9.13,9.75-13.7,1.93-3.62,4.23-7.09,5.7-10.88,2.49-6.41,4.45-13.03,6.63-19.55,0,0-.02.03-.02.03.2-.62.39-1.24.59-1.86.61-1.9,1.41-3.76,1.8-5.7,2.91-14.43,5.67-28.88,8.6-43.3,1.22-6.01,1.6-7.21-6.09-6.03-7.57,1.16-15.18,2.14-22.74,3.34-8.9,1.41-17.78,2.97-26.67,4.47-19.41,4.24-38.6,8.87-56.08,19.06-12.32,7.18-23.1,15.82-31.65,27.19-1.8,2.4-3.17,5.13-4.73,7.71-3.13,4.79-6.25,9.58-9.38,14.37,2.84.27,4.9-.07,6.96-.37,5.74-.84,11.5-1.61,17.22-2.57.89-.15,2.03-.96,2.37-1.76,1.58-3.72,2.92-7.54,4.34-11.32,1.36-2.47,2.59-5.02,4.11-7.39,3.08-4.8,6.32-9.5,9.51-14.24l.13.1c-.5.98-1,1.96-1.49,2.95-3.02,6.12-6.04,12.25-9.05,18.37-1.71,4.01-3.41,8.03-5.07,11.92.81.5.97.68,1.14.69,9.54.66,19.07,1.35,28.62,1.87.73.04,1.96-.97,2.2-1.73.72-2.3,1.07-4.71,1.56-7.08.5-1.73.99-3.46,1.49-5.19.27-.26.55-.52.82-.78-.1,2.74-.19,5.47-.29,8.21-.34,1.63-.68,3.26-1.02,4.89l-.16.12.12-.16c.38-.13.84-.16,1.12-.41,7.14-6.27,14.34-12.47,21.29-18.94,1.17-1.09,1.23-3.37,1.81-5.11,1.36-6.03,2.71-12.07,4.07-18.1.14-.16.28-.32.42-.48.03.93.22,1.87.08,2.77-.73,4.71-1.54,9.41-2.32,14.12-.07.96-.14,1.93-.26,3.74,8.63-7.46,16.5-14.26,24.37-21.07,9.3-6.97,18.45-14.16,28.74-19.68-.61,1.02-1.46,1.71-2.3,2.41-7,5.8-14,11.59-21,17.39-1.53,1.27-3.06,2.53-4.58,3.8Zm78.35,316.48c4.27,1.64,8.34.69,12.15-1.33.89-.47,1.78-2.2,1.6-3.14-.22-1.11-1.5-2.71-2.5-2.86-4.25-.63-8.65-1.19-11.96,2.66-1.32.77-2.64,1.55-3.97,2.32,1.46.8,2.93,1.59,4.4,2.38.07.04.19-.02.29-.04Zm-66.61,17.86c-.54,0-1.07,0-1.61,0-1.51-1.23-2.92-2.62-4.56-3.65-6.51-4.1-13.18-7.97-19.62-12.18-3.69-2.41-7.06-5.3-10.58-7.97-3.59-1.8-7.03-4.64-10.81-5.21-8.88-1.33-17.7.96-26.49,2.25-.46.07-.8.96-1.2,1.47,0,.33,0,.66,0,.99-.15.2-.12.37.08.51.63,2.85,1.26,5.71,1.89,8.56.24,1.27.23,2.66.77,3.79,5.71,12.03,12.3,23.27,23.87,30.95,7.41,4.92,15.01,9.29,23.65,11.18,6.99,1.53,14.22,2.63,21.35,2.62,6.22-.01,12.56-1.4,18.64-2.97,9.15-2.36,17.97-5.74,25.72-11.39l-.08-.03c.51-.21,1.03-.42,1.54-.62,5.41-3.97,10.88-7.87,16.2-11.96,2.14-1.64,4.05-3.62,5.82-5.67.47-.54.16-2.69-.08-2.74-1.6-.34-3.28-.31-5.3-.42.72,1.02,1.13,1.6,1.62,2.3-1.68.55-3.12,1.01-4.55,1.48-.48.13-.99.2-1.44.41-15.33,7.02-30.75,7.66-46.36.85-2.68-1.17-5.64-1.72-8.46-2.55ZM192.1,61.8c.28.34.56.69.84,1.03-.23.4-.46.8-.69,1.2-1.94,1.46-3.71,3.31-5.87,4.27-2.48,1.1-3.02,2.83-3.1,5.12-.03,1.01-.05,2.03-.2,3.03-2.46,16.25-3.9,32.57-3.51,49.03.05,2.09.18,4.17.29,6.54,2.48-.83,4.56-1.57,6.66-2.23,1.88-.59,2.69-1.79,3.52-3.67,3.39-7.66,6.63-15.49,11.02-22.58,5.2-8.4,11.76-15.88,19.43-22.27.71-.59,1.56-1.68,1.49-2.45-.34-3.49-.99-6.95-1.52-10.41-1.25-8.24-2.43-16.5-3.77-24.73-2.23-13.78-6.02-27.13-11.29-40.05-.53-1.3-1.78-2.32-2.69-3.47-1.69.04-3.73-.51-5.02.24-3.57,2.06-7.24,4.25-10.12,7.14-6.89,6.91-13.82,13.88-19.85,21.53-5.65,7.17-10.16,15.24-15.17,22.91.24.2.48.39.72.59.85-.44,1.69-.88,2.54-1.33.92.87,2.01,1.61,2.74,2.61,5.99,8.17,10.26,17.28,12.91,26.96,1.41,5.14,1.06,10.77,1.5,16.17-.21,6.59-2.41,12.58-5.55,18.29-.22.39-.43.78-.65,1.17-4.8,3.58-9.62,7.14-14.4,10.74-2.84,2.14-5.67,4.3-8.42,6.56-.86.71-1.77,1.68-2.05,2.69-1.77,6.41-.17,12.67.72,19.24.71-.44,1.07-.62,1.38-.86,9.58-7.83,19.87-14.56,30.84-20.29.74-.39,1.38-1.7,1.41-2.61.1-2.93-.1-5.87-.18-8.8l-.07-2.26c0-2.12-.17-4.25.01-6.35.86-9.73,1.82-19.46,2.75-29.19.24-2.75.49-5.5.73-8.25.02-.47.05-.93.07-1.4.83-3.64,1.63-7.29,2.48-10.92,2.26-9.6,4.37-19.25,6.88-28.79,2.3-8.75,5.04-17.38,7.59-26.07.25.06.49.13.74.19-1.44,5.84-2.89,11.67-4.33,17.51.38.13.76.27,1.14.4,2.19-3.74,4.39-7.47,6.96-11.84-.32,1.28-.34,1.91-.62,2.4-2.55,4.44-5.14,8.86-7.72,13.28-.53,1.18-1.25,2.3-1.56,3.53-1.44,5.68-2.88,11.37-4.09,17.1-.92,4.35-1.5,8.77-2.23,13.16.27.14.53.28.8.42,2.16-1.41,4.32-2.82,6.47-4.24Zm52.97-9.67l-.21.1c-2.77.55-6.22-.14-7.74,3-2.7,5.56-5.04,11.29-7.53,16.95.23.23.46.46.7.69,3.79-2.17,7.58-4.34,11.37-6.51,3.89-1.79,7.72-3.76,11.7-5.32,2.76-1.08,4.04-2.92,4.82-5.64,4.16-14.53,6.51-29.34,6.36-44.85-.92,1.41-1.85,2.82-2.77,4.22-1.82,2.38-3.73,4.69-5.43,7.15-6,8.69-11.77,17.53-15.9,27.32-.52.78-1.05,1.55-1.96,2.9,2.58-.63,4.43-1.08,6.29-1.53.11.5.21,1.01.32,1.51Zm-111.09,70.57c.76.62,1.53,1.24,2.29,1.86,1.4.53,2.8,1.05,4.2,1.58.89,0,1.98.33,2.65-.05,5.09-2.87,10.09-5.87,15.13-8.84,4.34-3.57,7.74-7.85,8.49-13.54.7-5.25,1.15-10.57,1.11-15.86-.03-3.35-.63-6.89-1.89-9.98-2.67-6.56-5.93-12.88-8.95-19.3-.22-1.48-.45-2.96-.79-5.18-2,3-3.31,5.58-5.19,7.65-2.44,2.68-5.34,4.94-8.02,7.39-4.16,3.8-8.28,7.58-10.56,12.98-3.39,8.04-5.39,16.18-3.07,24.89,1.53,5.46,3.06,10.93,4.59,16.39Zm183.8,275.2c-5.58-.75-11.16-1.49-17.07-2.29,4.98,5.52,26.61,17.58,30.81,17.71-2.22-4.81-4.57-9.89-6.92-14.97-2.27-.15-4.55-.3-6.82-.45Zm17.54,1.18c-1.27.8-2.69,1.44-3.73,2.46-.53.53-.81,1.96-.48,2.62,2.86,5.62,6.59,10.3,12.79,12.74,5.76,2.27,11.68,2.92,17.64,2.18,4.9-.61,9.71-2.1,14.49-3.46,1.38-.39,1.59-1.55-.28-1.97l-1.4-1.85c-2.12-1.84-4.35-3.57-6.34-5.55-7.13-7.05-15.91-9.2-25.57-8.88-2.37.57-4.75,1.14-7.12,1.7Zm-6.49-4.94c3.9,0,7.81.01,11.71.02h.16c6.03.6,12.1.93,18.09,1.84,8.54,1.29,17.02,3.1,26.03.68-1.66-.37-2.99-.66-4.31-.96-.34-3.58-2.91-2.2-4.87-2.2-1.37-.08-2.74-.29-4.1-.23-4.54.22-9.09.98-13.6.73-8.57-.47-17.11-1.48-25.66-2.26-1.15-.1-2.3-.14-3.46-.21.79-1.05,1.64-1.51,2.54-1.81,3.09-1,6.27-1.75,9.26-2.97,1.63-.67,2.95-2.08,4.42-3.16-.19-.33-.38-.65-.57-.98-17.8,5.42-35.9,7.02-54.36,4.45,9.95,3.19,20,5.39,30.37,5.96,2.38.13,4.74.7,7.11,1.07.45,2.06,1.67,3.17,4.45,3.42-1.35-1.44-2.28-2.42-3.2-3.4ZM225.01,25.63c-3.35,1.06-3.59,3.2-2.61,6.26,1.1,3.44,1.85,7.02,2.43,10.59,1.16,7.13,2.09,14.29,3.22,22.15.81-1.46,1.27-2.31,1.74-3.15,6.22-11.18,12.29-22.45,18.74-33.51,3.04-5.21,6.78-10.01,10.21-14.99,1.54-1.68,3.07-3.35,5.02-5.47-9.76,1.5-17.9,5.29-25.77,9.57-4.53,2.47-8.67,5.67-12.98,8.54Zm15.92,356.15c1.37-.07,2.73-.15,4.1-.22.61-.02,1.21-.04,1.82-.07,3.21-.25,6.46-.27,9.62-.8,11.26-1.89,22.33-4.58,32.92-8.93,25.46-10.45,46.29-26.64,60.75-50.3,9.39-15.37,14.59-32.13,15.9-50.21.81-11.23.82-22.37-1.13-33.41-2.5-14.16-7.14-27.64-14.2-40.26-9.96-17.8-23.49-32.4-39.88-44.3-5.83-4.24-12.4-7.55-18.89-10.78-8.39-4.18-17.14-7.53-26.5-8.97-6.93-1.21-13.82-3.05-20.8-3.47-11.89-.71-23.82-.38-35.58,2.01-28.91,5.87-52.97,19.99-72.01,42.55-8.76,10.38-15.69,21.9-20.2,34.72-2.58,7.35-4.72,14.91-6.41,22.52-1.25,5.63-1.79,11.47-2.01,17.24-.22,5.74.14,11.53.66,17.26.44,4.86,1.27,9.71,2.31,14.48,1.56,7.13,3.9,13.98,6.66,20.8,3.99,9.86,8.98,19.08,15.18,27.57,15.04,20.58,34.62,35.44,58.53,44.42,10.21,3.84,20.64,6.9,31.67,7.21l4.55.65c.2,0,.41.02.61.03,1.38.08,2.76.16,4.14.24,2.73,0,5.47.02,8.2.03ZM120.25,123.44l-1.26,1.08c5.52,12.68,11.03,25.37,16.58,38.13,2.34-1.08,2.83-2.3,1.77-4.62-4.95-10.78-9.67-21.66-14.58-32.46-.41-.9-1.66-1.43-2.51-2.13Zm249.44,279.44c5.5,6.94,10.51,9.04,14.19,6.06-4.24-2.95-8.34-6.04-14.19-6.06ZM129.35,119.46c-2.35,4.41-2.17,8.39,0,10.68v-10.68Zm170.76,275.74c-.14-.09-.27-.19-.41-.25-.04-.02-.13.1-.2.16.14.09.27.19.42.25.04.01.13-.11.2-.17Z"/>
  <path class="f" d="m38.82,375.36c-.19-.19-.37-.37-.56-.56-.42-.83-.85-1.65-1.27-2.48,0,0-.03.13-.03.13-.82-1.45-1.64-2.89-2.46-4.33-.03-.66-.06-1.31-.1-1.97.49-.76.98-1.51,1.47-2.27,0,0,.03-.09.03-.09.18-.22.37-.44.55-.65,0,0-.03.03-.03.03,1.22-.75,2.44-1.49,3.66-2.24.22-.06.44-.12.66-.18.59-.35,1.18-.69,1.77-1.04.22-.06.45-.12.67-.18,1-.4,2-.81,3.01-1.21,5.17-1.8,10.26-3.87,15.53-5.34,16.25-4.52,32.99-6.22,49.69-8.08,4.63-.52,9.26-1.08,13.9-1.63,2.92,5.32,5.87,10.61,8.73,15.96,2.1,3.92,4.36,7.79,6.01,11.9,1.98,4.93.61,7.31-4.34,9.07-1.43.51-3.27.72-4.15,1.74-3.38,3.89-7.57,3.65-12.06,3.29-1.82-.14-2.76-.77-3.94-2.04-6.73-7.26-13.28-14.74-21.7-20.2-.4-.2-.8-.41-1.2-.61-.16-.05-.32-.1-.47-.15l.14.49,1.18.72c.5.62.93,1.3,1.5,1.85,3.98,3.88,8.06,7.66,11.94,11.64,2.04,2.1,3.74,4.54,5.59,6.83-2.14.33-3.82.09-5.48-.16-10.27-1.55-20.53-3.1-30.8-4.65,0,0-.14-.15-.14-.15-4.08-4.45-8.95-7.8-14.05-10.83-.19.24-.37.48-.56.72,4.24,3.63,8.47,7.26,12.71,10.89-7.17-1.72-14.33-3.43-21.5-5.16-1.14-.27-2.27-.59-3.4-.89l-.25.85c8.07,2.55,16.08,5.34,24.24,7.6,11.83,3.28,23.77,6.18,35.66,9.25-3.04,1.61-5.92,3.76-9.15,4.73-6.43,1.92-13.07,3.17-19.6,4.78-.54.13-.93.86-1.39,1.31,4.75-.15,9.57.17,14.23-.56,7.73-1.22,15.21-3.47,21.35-8.78.42-.11.83-.21,1.25-.32,1.57.61,3.08,1.46,4.71,1.78,12.59,2.44,25.3,3.83,38.14,3.75,3.26-.02,6.52,0,9.97,0-.39.67-.74,1.26-1.08,1.84-.79.58-1.61,1.11-2.35,1.74-3.66,3.14-7,6.77-11.01,9.38-10,6.5-21.36,9.48-33.01,11.39-3.59.59-7.21,1.01-10.81,1.51.03.31.06.62.09.94h9.55c.97.21,2.01.77,2.89.57,7.8-1.7,15.8-2.84,23.28-5.48,10.29-3.63,19.31-9.55,24.6-19.68,1.01-1.93,2.07-2.92,4.33-2.96,2.31-.03,4.6-.67,6.91-.87,6.26-.54,12.34-3.36,18.85-.82,3.46,1.35,7.26,1.81,10.9,2.67,1.35.32,2.7.64,4.52,1.07-.82,1.15-1.34,1.97-1.94,2.72-7.92,9.75-17.83,17.13-28.6,23.31-6.04,3.47-12.51,6.18-18.79,9.24v-.02c-.56.18-1.14.36-1.72.54-12.49,1.71-24.89.37-37.05-2.15-17.53-3.64-33.43-11.39-48.39-21.17-12.71-8.31-23.88-18.35-34.09-29.53-.58-.64-1.69-.8-2.55-1.18,0,0,.14-.07.14-.07-.22-.22-.44-.44-.66-.65,0,0,.03.06.03.06-.21-.42-.42-.85-.64-1.27,0,0,.04.04.04.04-.21-.22-.42-.43-.64-.65,0,0,.04.03.04.03-.22-.22-.44-.43-.66-.65,0,0,.03.07.03.07-.21-.43-.42-.85-.63-1.28,0,0,.04.04.04.04-.22-.22-.43-.44-.65-.65,0,0,.05.04.05.04-.22-.21-.45-.43-.67-.64Zm21.31-7.54c.16-.06.31-.12.47-.18-.07-.16-.15-.45-.21-.44-.19.02-.38.14-.56.22.1.13.2.26.3.4Z"/>
  <path class="f" d="m15.04,179.93c1.35,1.59,2.71,3.18,4.06,4.77-.36.27-.73.55-1.09.82.19.2.39.4.58.6.27-.36.55-.72.82-1.08,1.02,1.11,2.04,2.21,3.06,3.32-1.84.13-1.78.85-.69,2.03,6.22,6.8,12.41,13.63,18.63,20.42.98,1.07,2.1,2.01,3.15,3-.11.34-.21.69-.32,1.03-5.68-.66-11.37-1.33-17.05-1.99-.05.25-.09.51-.14.76,4.41.95,8.78,2.16,13.23,2.77,5.28.72,10.35,1.27,14.04,5.95,1.61,2.04,4.2,3.29,6.35,4.9,0,0,.04.03.03.04.7,3.51,3.46,5.35,5.98,7.38,0,0,0,0,0,0,.45.89.93,1.76,1.35,2.66,1.52,3.26,3.44,6.4,4.42,9.81,1.71,6,2.84,12.16,4.21,18.26-4.55-.77-9.1-1.55-13.65-2.32-.82-.32-1.65-.63-2.47-.95l.04.05c-3.44-1.3-6.88-2.62-10.33-3.9-4.87-1.8-9.75-3.56-14.63-5.34,0,0-.16-.15-.16-.15l.14.17c2.03,1.41,4.05,2.83,6.08,4.24,5.04,2.19,9.93,4.86,15.16,6.46,7,2.14,14.25,3.46,21.39,5.13,1.78,4.15,3.58,8.29,5.32,12.46,1.96,4.71,3.87,9.45,5.8,14.18-10.31-.29-20.48-1.4-30.37-4.56-.76-.24-1.76.29-2.65.46.42.2.83.41,1.25.61l-.07-.04,1.9.65-.05-.02c4.92,1.6,9.75,3.72,14.79,4.66,5.71,1.06,11.61,1.07,17.44,1.54.61,1.27,1.15,2.58,1.85,3.79,4.29,7.41,8.63,14.79,12.95,22.18-.88-.21-1.85-.26-2.64-.65-8.96-4.48-18.1-8.65-26.75-13.66-5.82-3.38-10.78-8.21-16.42-11.95-5.54-3.68-8.98-9.37-14.07-13.61-6.61-5.5-11.55-13.18-16.59-20.35-7.08-10.08-11.69-21.49-16.38-32.83-.25-.6-1.36-.84-2.07-1.25-1.02-4.22-2.22-8.41-3.04-12.68-1.75-9.07-3.5-18.16-4.9-27.29-1.13-7.39-1.83-14.85-2.5-22.3-.26-2.85,1.14-3.82,3.89-3.18,1.73.41,3.41,1,5.12,1.51,1.76,1.09,3.41,2.43,5.29,3.23,10.6,4.5,21.69,8.06,31.77,13.49,12.07,6.49,23.3,14.53,34.87,21.94,2.87,1.84,5.63,3.86,8.43,5.8-.2,2.72-.32,5.45-.63,8.15-.52,4.51-.9,9.06-1.86,13.48-.72,3.32-2.76,3.91-5.72,2.27-1.05-.58-2.07-1.28-2.99-2.06-6.22-5.28-12.44-10.56-18.59-15.93-1.33-1.16-2.68-2.5-3.49-4.03-1.31-2.49-1.94-5.36-3.3-7.82-3.03-5.46-6.34-10.76-9.54-16.12-.15-.04-.3-.09-.45-.13.04.15.09.3.13.46,1.91,4.09,4.02,8.1,5.69,12.29,1.47,3.71,2.45,7.61,3.64,11.43-9.18-8.53-18.33-17.1-27.58-25.56-2.97-2.72-6.21-5.15-9.33-7.72-.24-.03-.47-.06-.71-.09l.38.42Z"/>
  <path class="f" d="m291.68,78.33c-.14.16-.28.32-.42.48-.52.92-1.28,1.78-1.53,2.77-1.27,5.16-2.41,10.35-3.59,15.53-6.13,5.95-12.22,11.94-18.43,17.8-.92.86-2.44,1.08-3.68,1.6.1-2.74.19-5.47.29-8.21,0,0-.09.02-.09.02.41-.71.82-1.42,1.24-2.14.2,0,.39-.01.59-.04,2.91-8.15,2.63-16.64,2.58-25.11-.08.68-.15,1.37-.23,2.05-.48,1.94-1.08,3.85-1.42,5.81-.97,5.56-1.83,11.14-2.73,16.7-.16.54-.32,1.08-.48,1.62-.09.62-.18,1.23-.27,1.85-.5,1.73-.99,3.46-1.49,5.19-2.06-.48-4.11-1.03-6.19-1.44-7.41-1.44-14.84-2.83-22.25-4.24,3.02-6.12,6.03-12.25,9.05-18.37.49-.99.99-1.96,1.49-2.95.41-.61.81-1.22,1.21-1.83.2-.41.39-.83.59-1.24.22-.11.43-.22.65-.34-.04-.08-.09-.16-.13-.24-.16.2-.32.4-.48.6-.2.41-.39.82-.59,1.24l-1.38,1.7c-3.17,4.74-6.41,9.45-9.5,14.25-1.52,2.37-2.75,4.92-4.11,7.39-5.16.34-10.31.68-15.47,1.02.45-.77.76-1.68,1.37-2.28,5.51-5.38,10.69-11.18,16.7-15.92,8.04-6.35,16.39-12.49,25.25-17.61,12.76-7.38,26.87-11.75,40.97-15.95.8-.24,1.43-1.04,2.13-1.57,8.89-1.5,17.77-3.06,26.67-4.47,7.57-1.2,15.17-2.18,22.74-3.34,7.69-1.18,7.31.02,6.09,6.03-2.93,14.42-5.7,28.88-8.6,43.3-.39,1.94-1.19,3.8-1.8,5.7-.2.62-.39,1.24-.59,1.86,0,0,.02-.03.02-.03-.65.89-1.37,1.74-1.95,2.67-4.21,6.76-8.38,13.55-12.61,20.29-1.31,2.09-2.81,4.07-4.53,6.56,2.66.36,4.71.64,6.76.92-3.25,4.57-6.48,9.15-9.75,13.7-1.2,1.67-2.52,1.66-4.04.27-1.4-1.28-2.96-2.39-4.45-3.58,4.78-2.18,6.91-6.81,10.74-11.21-18.33-1.66-34.11-9.03-50.09-15.08,3.3-3.8,6.46-7.44,9.62-11.08,4.84.24,9.69.85,14.5.62,6-.29,11.96-1.28,17.94-1.98-.02-.31-.04-.62-.06-.94-9.78,0-19.55,0-29.33,0,7.25-6.74,14.57-13.4,21.69-20.28,2.01-1.94,4.16-2.96,6.81-3.53,3.41-.73,6.76-1.73,10.1-2.73.79-.24,1.45-.94,2.17-1.43.67-.44,1.35-.88,2.02-1.31-.11-.28-.23-.56-.34-.84-1.78.73-3.55,1.45-5.33,2.18h.03c-1.39.13-2.79.45-4.16.35-.89-.06-1.74-.74-2.61-1.14,7-5.8,14-11.59,21-17.39.84-.7,1.69-1.39,2.3-2.41-10.29,5.53-19.44,12.71-28.74,19.68-.58-2.41-2.2-1.07-3-.53-2.75,1.87-5.37,3.93-7.94,6.04-4.05,3.32-8.03,6.74-12.04,10.11,1.91-7.68,3.83-15.37,5.74-23.05.33-1.32.66-2.64,1-3.96-.25-.13-.49-.27-.74-.4-.68.88-1.63,1.66-2.01,2.65-1.09,2.87-1.96,5.83-2.91,8.75,0,0-.2-.13-.2-.13,0,0,.13.2.13.2.04.25.07.5.11.75Zm41.57-1.22c.02-.09.04-.18.06-.27-.16-.02-.32-.05-.48-.05-.02,0-.04.17-.06.26.16.02.32.05.48.07Zm1.33-.81c.12.1.24.2.36.31.05-.07.16-.2.15-.21-.1-.12-.23-.21-.35-.31-.05.07-.11.15-.16.22Z"/>
  <path class="i" d="m223.44,380.83c-11.03-.3-21.46-3.37-31.67-7.21-23.91-8.99-43.48-23.84-58.53-44.42-6.2-8.48-11.19-17.71-15.18-27.57-2.76-6.82-5.1-13.67-6.66-20.8-1.04-4.77-1.87-9.62-2.31-14.48-.52-5.73-.88-11.52-.66-17.26.22-5.77.76-11.62,2.01-17.24,1.69-7.61,3.82-15.16,6.41-22.52,4.5-12.81,11.43-24.34,20.2-34.72,19.04-22.56,43.1-36.68,72.01-42.55,11.76-2.39,23.69-2.72,35.58-2.01,6.98.42,13.87,2.27,20.8,3.47-1.25.11-2.49.28-3.74.3-2.07.03-4.15-.21-6.19.02-.93.11-1.77,1.07-2.65,1.64.59.88,1,2.01,1.81,2.58,1.89,1.32,4.02,2.28,5.93,3.57.6.41.8,1.41,1.18,2.14-3.31-.59-6.71-.88-9.92-1.81-8.22-2.38-16.58-2.94-25.02-2.33-6.39.46-12.93.61-19.1,2.11-41.71,10.13-70.29,34.99-83.86,76.16-3.08,9.35-4.17,19.15-4.52,28.94-.4,11.36,1.22,22.49,3.94,33.59,3.05,12.42,7.9,23.99,15.09,34.4,4.84,7,11.09,13.01,16.39,19.71,7.16,9.06,16.16,15.79,26.1,21.34,15.3,8.55,31.83,13.01,49.29,14.13.36.02.72.04,1.08.05,4.73.06,9.45.12,14.18.18-2.13.47-4.26.95-6.35,1.42,3.41,2.74,6.68,5.38,9.96,8.01-.11.38-.22.77-.33,1.15h-25.28Z"/>
  <path class="h" d="m223.44,380.83h25.28c.11-.38.22-.77.33-1.15-3.27-2.63-6.55-5.27-9.96-8.01,2.09-.47,4.22-.94,6.35-1.41,3.3-.35,6.62-.61,9.91-1.06,12.31-1.69,24.27-4.59,35.17-10.87,1.41,2.29,3.66,2.39,5.55,1.32,2.33-1.32,4.4-3.2,6.3-5.11.26-.26-.78-2.38-1.66-3.06-.64-.5-2.36-.45-2.97.08-.73.64-1.09,2.05-1.05,3.11.03.99.79,1.96,1.26,2.99-4.65.49-5.7-.66-4.73-4.79.13-.57-.3-1.27-.47-1.92,2.85-2.68,5.8-3.57,9.61-1.55,1.38.73,3.94.6,5.32-.22,22.5-13.28,38.57-31.76,45.7-57.33.45.11.9.21,1.34.32-.38,1.77-.58,3.61-1.17,5.31-5.5,15.82-14.59,29.25-27.19,40.3-.72.63-1.21,1.52-1.81,2.28-.62.4-1.24.8-1.86,1.2-.6.62-1.2,1.23-1.8,1.85-1.03.6-2.05,1.2-3.08,1.8-1.41,1.02-2.82,2.04-4.23,3.06-.61.41-1.21.82-1.82,1.23-.42.19-.83.39-1.25.58,0,0-.01-.02-.01-.02.41-.2.82-.4,1.23-.6.6-.41,1.21-.82,1.81-1.23,1.41-1.02,2.82-2.04,4.24-3.05,1.02-.6,2.05-1.2,3.07-1.8.6-.62,1.2-1.23,1.81-1.85.62-.4,1.24-.8,1.86-1.2.44-.24.93-.42,1.31-.73,11.86-9.77,20.86-21.73,26.94-35.8,1.52-3.53,2.03-7.49,3-11.26.53-.19,1.06-.39,1.62-.59-.17-.33-.21-.58-.34-.65-6.48-3.66-6.87-4.79-4.06-11.92.14-.36.1-.79.15-1.19,0,0-.02.03-.02.03.43-.22.85-.44,1.28-.66,2.51-.98,2.69-3.26,2.97-5.42,1.79-13.86.1-27.45-3.28-40.9-2.27-9.04-5.69-17.55-10.97-25.31-4.37-6.42-7.9-13.49-12.78-19.47-5.66-6.93-12.14-13.26-18.73-19.34-4.46-4.12-9.38-7.99-14.69-10.88-9.51-5.17-19.41-9.65-30.22-11.57-.85-1.44-1.68-1.38-2.47.05-.8-.2-1.6-.41-2.4-.61-.38-.73-.58-1.73-1.18-2.14-1.91-1.29-4.05-2.25-5.93-3.57-.81-.57-1.22-1.7-1.81-2.58.88-.57,1.72-1.53,2.65-1.64,2.04-.23,4.12.01,6.19-.02,1.25-.02,2.49-.2,3.74-.3,9.36,1.44,18.11,4.8,26.5,8.97,6.48,3.23,13.05,6.54,18.89,10.78,16.38,11.9,29.92,26.5,39.88,44.3,7.06,12.62,11.7,26.09,14.2,40.26,1.95,11.04,1.94,22.18,1.13,33.41-1.31,18.08-6.51,34.84-15.9,50.21-14.46,23.66-35.29,39.85-60.75,50.3-10.59,4.35-21.66,7.04-32.92,8.93-3.16.53-6.41.55-9.62.8-.6.02-1.21.04-1.82.07-1.37.07-2.73.15-4.09.22-2.73,0-5.47-.02-8.2-.03-1.38-.08-2.76-.16-4.13-.24-.2,0-.41-.02-.61-.03-1.52-.22-3.03-.43-4.55-.65Zm92.55-213.75c-.21-.21-.42-.42-.63-.63-.4-.19-.8-.39-1.21-.58l.02-.02c.41.19.81.38,1.22.57l.63.63c.2.2.4.41.6.61.2.2.4.41.6.61l.6.61c.2.2.41.41.61.61.2.2.41.41.61.61.2.2.41.41.61.61.17.05.34.1.51.16-.18-.04-.36-.08-.54-.13-.2-.2-.41-.41-.61-.61-.2-.2-.41-.41-.61-.61-.2-.2-.41-.41-.61-.61-.2-.2-.4-.41-.6-.61-.2-.2-.4-.41-.6-.61-.2-.2-.4-.41-.6-.61Zm5.97,5.56c7.95,7.41,13.47,16.69,18.99,25.84,4.58,7.6,9.04,15.45,12.15,23.72,5.03,13.39,6.32,27.6,6.21,41.88,0,1.32,0,2.64,0,3.96,0,1.29,0,2.58,0,3.88,3.43-39.09-7.4-72.87-37.34-99.28Zm39.91,110.82c-.72-.53-1.55-1.63-2.53-1.78-2.45-.37-3.02,1.49-3.16,3.44-.11,1.44-.12,3.02,1.91,3.11,2.81.13,3.01-2.14,3.78-4.78Z"/>
  <path class="f" d="m192.7,31.83c2.58-4.42,5.17-8.84,7.72-13.28.28-.49.3-1.13.62-2.4-2.57,4.37-4.76,8.11-6.96,11.84-.38-.13-.76-.27-1.14-.4,1.44-5.84,2.89-11.67,4.33-17.51-.25-.06-.49-.13-.74-.19-2.55,8.68-5.29,17.32-7.59,26.07-2.51,9.54-4.62,19.18-6.88,28.79-.86,3.63-1.66,7.28-2.48,10.92-.63-1.49-1.26-2.97-1.89-4.46-.06-.6-.06-1.21-.17-1.79-1.18-5.98-2.47-11.95-3.55-17.95-.54-3.03-.72-6.12-1.07-9.18-.1-.48-.19-.95-.29-1.43h-.75c0,5.8-.25,11.6.07,17.38.31,5.71,1.83,11.2,4.89,16.12.65,1.05,1.78,1.81,2.69,2.71-.24,2.75-.49,5.5-.73,8.25-.21-.52-.42-1.04-.8-1.97-.37,1.62-.79,2.83-.89,4.07-.3,3.67-1.88,6.75-4.11,9.57-.44-5.41-.1-11.03-1.5-16.17-2.65-9.68-6.92-18.79-12.91-26.96-.73-1-1.82-1.75-2.74-2.61.46-.22,1.12-.32,1.34-.68,1.32-2.12,2.33-4.45,3.82-6.43,5.46-7.26,10.5-14.95,16.77-21.45,7.76-8.04,16.59-15.06,24.96-22.52.91,1.15,2.16,2.16,2.69,3.47,5.27,12.92,9.06,26.27,11.29,40.05,1.33,8.23,2.52,16.48,3.77,24.73-1.32,1.47-2.58,3-3.98,4.39-4.66,4.61-9.53,9.02-14.02,13.79-2.34,2.48-4,5.58-6.1,8.29-.61.79-1.69,1.23-2.55,1.83-.58-.9-1.4-1.72-1.69-2.7-.36-1.23-.4-2.59-.38-3.9.14-8.69.33-17.38.5-26.07.23-.4.46-.8.69-1.2,5.61-4.39,9.33-10.19,12.56-16.14-4.52,4.83-9.1,9.73-13.69,14.63-.01-.8-.08-1.61-.02-2.41.55-8.21,1.15-16.41,1.64-24.63.05-.8-.47-1.63-.73-2.45Zm13.65,12.82c.13-.17.25-.34.07-.09.07-.3.02-.09-.03.12-.1.08-.21.16-.31.24.06-.01.14,0,.17-.04.05-.07.07-.16.11-.24Z"/>
  <path class="f" d="m382.39,417.45c1.43-.47,2.86-.93,4.55-1.48-.49-.7-.9-1.27-1.62-2.3,2.02.11,3.7.08,5.3.42.24.05.54,2.2.08,2.74-1.76,2.04-3.68,4.02-5.82,5.67-5.32,4.09-10.79,7.98-16.2,11.96-.51.21-1.03.42-1.54.62,0,0,.08.03.08.03-2.44.88-4.9,1.68-7.3,2.64-15.48,6.2-31.48,9.24-48.11,6.83-19.04-2.76-34.8-11.75-46.72-26.86-3.37-4.27-5.49-9.54-8.18-14.36,5.53,5.42,12.41,8.74,19.03,12.47-.89-1.28-1.86-2.42-2.96-3.42-3.25-2.96-5.41-6.49-6.37-10.82-.45-2.04-.04-2.91,2.11-3.32,5.46-1.05,10.88-2.34,16.32-3.54.16,0,.32.02.47.08,4.47,3.06,8.94,6.11,13.41,9.17-2.8,9.97,1.27,18.15,6.8,25.93.42.59,1.19.94,1.8,1.4.18.43.35.85.53,1.28.04.07.08.15.13.2.03.03.1.01.15.02l-.32-.18c-.18-.43-.35-.86-.53-1.29-1.73-3.52-3.73-6.94-5.11-10.59-1.82-4.83-2.87-9.87-1.12-15.03,1.03.63,2.03,1.32,3.09,1.88,6.56,3.45,13.14,6.88,19.71,10.31.96,1.16,1.86,2.37,2.89,3.47,2.4,2.55,4.87,5.04,7.31,7.55.14.04.29.08.43.11-.15-.03-.29-.07-.44-.1-1.98-2.85-3.96-5.7-5.94-8.56,2.25.54,4.52,1.04,6.76,1.62,9.51,2.47,19.13,4.2,28.98,3.18,5.76-.59,11.36-2.09,16.35-5.2.86-.54,1.34-1.69,1.99-2.55Zm-46.26,12.65c.06.12.11.24.17.36,0-.06.03-.13,0-.16-.05-.06-.14-.11-.21-.16-.05-.06-.09-.14-.15-.19-.03-.02-.1,0-.15,0,.11.05.23.1.34.15Z"/>
  <path class="b" d="m74.19,379.57c-4.24-3.63-8.47-7.26-12.71-10.89.19-.24.37-.48.56-.72,5.1,3.03,9.97,6.38,14.05,10.83-.07.07-.14.14-.19.23,0,.01.07.08.11.13.07-.07.15-.13.22-.2,10.27,1.55,20.53,3.1,30.8,4.65,1.67.25,3.34.49,5.48.16-1.85-2.29-3.55-4.73-5.59-6.83-3.88-3.98-7.96-7.75-11.94-11.64-.56-.55-1-1.23-1.5-1.85.12-.15.24-.3.36-.44,8.42,5.46,14.97,12.94,21.7,20.21,1.18,1.27,2.12,1.9,3.94,2.04,4.49.36,8.68.6,12.06-3.29.88-1.02,2.72-1.23,4.15-1.74,4.96-1.76,6.33-4.14,4.34-9.07-1.65-4.11-3.92-7.98-6.01-11.9-2.86-5.35-5.82-10.64-8.73-15.96,5.41-1.87,9.02-.04,12.94,4.25,13.75,15.05,30.53,25.91,49.46,33.47,1.69.67,3.45,1.14,5.18,1.71-.85.83-1.56,2.05-2.57,2.42-3.98,1.42-8.06,2.57-11.86,3.74.34.23,1,.66,1.65,1.1-9.55.81-19.1,2.36-28.63,2.23-10.33-.14-20.7-1.45-30.93-3.03-6.11-.95-12.31-1.58-18.36-3.02-6.09-1.45-12.25-2.62-18.36-4.01-3.23-.74-6.42-1.69-9.62-2.55Z"/>
  <path class="b" d="m396.98,332.12c-9.45,11.42-21.2,20.26-32.82,29.24-.23.21-.45.42-.68.64,0,0,.05-.05.05-.05-.22.22-.44.44-.66.66,0,0,.06-.02.06-.02-1.24.39-2.6.58-3.71,1.21-10.22,5.76-21.04,10.06-32.48,12.55-5.79,1.26-11.77,1.69-17.66,2.5,2.93-1.91,5.88-3.79,8.78-5.74,3.81-2.57,7.58-5.21,11.22-7.72-1.52-1.8-2.71-3.21-3.9-4.61,9.37-6.88,17.57-14.96,24.58-24.21,1.41-1.86,2.58-2.17,4.99-1.83,5.48.78,11.07.73,16.61,1.02,2.83-.04,5.71.27,8.47-.18,5.75-.93,11.43-2.26,17.14-3.43Z"/>
  <path class="i" d="m94.14,102.76c3.01,3.56,5.91,7.21,9.05,10.65,4.26,4.65,8.8,9.05,13,13.75,1.11,1.24,1.31,3.22-.66,4.44-.17.11-.36.21-.5.35-4.23,4.17-8.58,5.91-14.39,2.4-2.38-1.44-5.85-1.08-8.82-1.53-2-.83-4.02-1.61-6-2.5-11.16-5.02-20.42-12.43-27.29-22.55-2.84-4.19-4.9-8.9-7.32-13.37l.94-.65c12.68,18.03,27.13,33.5,51.26,36.03-.61-1.66-.94-2.92-1.51-4.06-4.04-7.99-9.57-14.77-16.79-20.08-2.8-2.06-5.83-3.81-8.75-5.7l.1-.21c-.52-.29-1.04-.58-1.55-.87-5.89-7.04-11.81-14.05-17.67-21.12-4.53-5.47-8.98-11.01-13.46-16.51,1.54.63,3.16,1.11,4.62,1.9,8.33,4.51,17.75,5.72,26.52,8.89,2.7.97,5.31,2.22,8.07,2.96,3.59.95,4.38,3.53,4.7,6.68.2,1.96.67,3.9,1.02,5.85-.08.16-.05.29.1.38.19,1.04.38,2.09.57,3.13,0,0-.04-.05-.04-.05.43,1.42.85,2.84,1.28,4.26h0c.2.42.41.85.61,1.28.58,1.4,1.16,2.81,1.74,4.21.24.38.47.77.71,1.15l.03.06c.16.25.32.5.49.74l-.04.08Z"/>
  <path class="f" d="m396.98,332.12c-5.71,1.17-11.39,2.5-17.14,3.43-2.76.45-5.65.14-8.47.18-.03-.14-.05-.29-.08-.43,6.24-9.44,12.36-18.97,18.81-28.27,1.51-2.17,4.15-3.56,6.28-5.3,3.38-.41,6.75-.81,10.13-1.22-.02-.21-.04-.43-.05-.64-3.82.25-7.64.5-11.46.75l-.28-.69c.94-.63,1.86-1.3,2.82-1.9,12.19-7.63,24.39-15.25,36.57-22.89.29-.18.44-.6.66-.91,0,0-.05.04-.05.04.42,0,.84,0,1.26,0-.3.95-.4,2.03-.93,2.83-9.74,14.9-19.55,29.76-29.3,44.66-.63.97-.95,2.14-1.41,3.21-2.45,2.38-4.9,4.77-7.35,7.15Z"/>
  <path class="b" d="m166.78,434.46c6.28-3.05,12.75-5.77,18.79-9.24,10.78-6.18,20.68-13.56,28.6-23.31.61-.75,1.13-1.57,1.94-2.72-1.82-.43-3.17-.75-4.52-1.07-3.65-.86-7.45-1.32-10.9-2.67-6.51-2.54-12.59.28-18.85.82-2.31.2-4.6.83-6.91.87-2.26.03-3.33,1.02-4.33,2.96-5.29,10.14-14.3,16.05-24.6,19.68-7.48,2.64-15.48,3.79-23.28,5.48-.88.19-1.93-.36-2.89-.57.72-.27,1.42-.66,2.17-.78,10.25-1.65,20.18-4.34,29.34-9.35,6.56-3.58,12.35-8.09,16.03-14.83.34-.59.69-1.17,1.08-1.84-3.46,0-6.71-.02-9.97,0-12.84.08-25.55-1.3-38.14-3.75-1.62-.31-3.14-1.17-4.71-1.78,5.59.73,11.17,1.46,16.76,2.18,13.39,1.74,26.84,2.54,40.23.39,11.96-1.92,23.79-4.57,35.71-6.73,2.21-.4,4.59-.09,6.87.11,2.36.21,4.71.67,7.06,1.03.89.52,1.74,1.4,2.67,1.49,2.66.27,5.36.34,8.04.24,1.18-.04,2.35-.67,3.52-1.03.64-.02,1.28-.03,1.92-.05.28.21.56.42.84.63-1.05,2.63-2.11,5.26-3.16,7.88-1.57,1.23-3.28,2.32-4.67,3.72-2.5,2.51-4.68,5.35-7.22,7.81-9.93,9.62-21.62,16.45-34.82,20.25-7.32,2.11-15.04,2.82-22.58,4.16Z"/>
  <path class="b" d="m43.28,188.84c3.2,5.37,6.51,10.67,9.54,16.13,1.37,2.46,1.99,5.32,3.3,7.82.81,1.53,2.16,2.87,3.49,4.03,6.15,5.36,12.37,10.65,18.59,15.93.92.78,1.93,1.47,2.99,2.06,2.97,1.65,5,1.05,5.72-2.27.96-4.42,1.34-8.97,1.86-13.48.31-2.71.43-5.43.63-8.15.22-1.82.44-3.65.67-5.47.81.4,1.61.79,2.42,1.19.58.44,1.15.87,1.73,1.31,2.01,1.69,4.02,3.38,6.03,5.08.63.54,1.25,1.09,1.88,1.63,4.06,2.26,2.44,5.63,1.91,8.94-1.16,7.16-2.7,14.32-2.97,21.53-.39,10.19.22,20.42.39,30.28-1.96-2.96-4.22-6.46-6.57-9.91-12.07-17.7-25.13-34.58-40.36-49.71-.85-.85-1.49-1.9-2.23-2.86-1.19-3.82-2.17-7.72-3.64-11.43-1.66-4.19-3.77-8.2-5.69-12.29.11-.11.22-.22.32-.33Z"/>
  <path class="b" d="m192.26,64.03c-.17,8.69-.36,17.38-.5,26.07-.02,1.3.02,2.66.38,3.9.29.98,1.11,1.81,1.69,2.7.86-.6,1.94-1.04,2.55-1.83,2.1-2.72,3.76-5.82,6.1-8.29,4.49-4.76,9.36-9.18,14.02-13.79,1.4-1.39,2.66-2.92,3.98-4.39.54,3.47,1.18,6.93,1.52,10.41.07.77-.78,1.85-1.49,2.45-7.67,6.39-14.23,13.88-19.43,22.27-4.39,7.09-7.63,14.92-11.02,22.58-.83,1.88-1.64,3.08-3.52,3.67-2.1.66-4.18,1.39-6.66,2.23-.11-2.36-.24-4.45-.29-6.54-.4-16.45,1.05-32.77,3.51-49.03.15-1,.16-2.02.2-3.03.08-2.29.62-4.02,3.1-5.12,2.16-.96,3.93-2.81,5.87-4.27Z"/>
  <path class="c" d="m166.78,434.46c7.54-1.34,15.26-2.05,22.58-4.16,13.2-3.8,24.9-10.63,34.82-20.25,2.54-2.46,4.72-5.3,7.22-7.81,1.39-1.4,3.1-2.49,4.67-3.72-1.76,3.5-3.31,7.14-5.33,10.49-5.18,8.61-13.01,14.53-21.44,19.52-4.4,2.61-9.42,4.26-14.27,6.02-4.47,1.62-9.04,3.09-13.68,4.09-9.2,1.98-18.44,2.93-27.98,2.09-8.37-.74-16.75-1.2-24.86-3.36-7.98-2.13-15.94-4.52-23.64-7.49-10.01-3.86-19.32-9.18-28-15.54-4.46-3.27-9.2-6.22-13.31-9.88-4.26-3.79-8.01-8.17-11.78-12.48-3.09-3.54-5.88-7.34-8.8-11.03.86.38,1.97.54,2.55,1.18,10.21,11.18,21.38,21.22,34.09,29.53,14.96,9.78,30.85,17.53,48.39,21.17,12.16,2.53,24.56,3.86,37.05,2.15.58-.18,1.15-.36,1.73-.54v.02Z"/>
  <path class="h" d="m157.02,58.58c3.02,6.42,6.28,12.74,8.95,19.3,1.26,3.09,1.86,6.63,1.89,9.98.04,5.29-.41,10.61-1.11,15.86-.75,5.69-4.15,9.97-8.49,13.54.39-1.33.48-2.87,1.23-3.95,3.99-5.74,4.97-12.28,5.45-18.99.61-8.57-2-16.28-6.16-23.6-.35-1.98-.69-3.95-1.04-5.93-.7,1.03-.7,1.99-.7,2.94.02,7.3.06,14.6.06,21.9,0,2.26-.07,4.53-.11,6.79-1.17,3.49-1.79,7.3-3.64,10.39-3.96,6.64-8.55,12.91-12.88,19.33-1.4-.53-2.8-1.05-4.2-1.58.21-4.74.11-9.52.73-14.2.73-5.46,1.92-10.87,3.25-16.22.75-3.01,2.2-5.84,3.34-8.75,0,0-.02.06-.02.06.43-.77.87-1.54,1.3-2.3,1.83-2.5,4.12-4.78,5.38-7.53,2.55-5.54,4.54-11.34,6.76-17.04Z"/>
  <path class="f" d="m434.75,274.23c-4.26,2.07-8.59,4.01-12.77,6.22-6.16,3.25-12.22,6.7-18.32,10.06-.25-2.57-1.61-1.92-3.16-1.18-3.61,1.73-7.27,3.37-10.91,5.05,2.65-3.97,5.3-7.93,7.95-11.9,0,0,.04.03.04.03.21-.53.41-1.07.62-1.6,0,0-.04.05-.04.05.81-.8,1.62-1.6,2.43-2.41,1.04-1.02,2.07-2.05,3.11-3.07.52-.13,1.05-.26,1.57-.39-.35-.3-.7-.61-1.05-.91-.19.42-.38.84-.57,1.26l-4.26,3.06c-2.8.49-3.81,2.47-4.18,4.99,0,0,0-.1,0-.1-.22.22-.44.43-.66.65,0,0,.04-.03.04-.03-.21.22-.42.43-.64.65,0,0,.15.07.15.07-.45.6-.9,1.19-1.35,1.79,0,0,.02-.08.02-.08-.22.22-.44.44-.66.65,0,0,.04-.03.04-.03-.21.22-.42.43-.64.65,0,0,.17.08.16.08-.44.6-.88,1.21-1.31,1.81,0,0,.08-.03.07-.03-.43.62-.86,1.23-1.29,1.85,0,0-.04-.11-.04-.11-.21.43-.41.87-.62,1.3,0,0,.04-.08.04-.08-.23.22-.45.44-.68.66,0,0,.04-.05.04-.05-.21.52-.42,1.04-.63,1.57-.68,1.48-1.35,2.96-2.03,4.44-.8.35-1.6.7-3.29,1.43-.11-10.23,3.89-19,5.8-28.16,10.55-2.7,20.99-6.01,32.09-5.53.47.02.95-.27,1.43-.42.85,0,1.71,0,2.56,0,3.2.02,6.4.04,9.59.06,1.98.15,3.95.31,5.93.44,3.35.21,4.08,1.32,2.79,4.41-.33.8-.87,1.52-1.31,2.27-1.51,0-3.03,0-4.54-.01-.53.21-1.06.42-1.59.63l.05-.04Z"/>
  <path class="c" d="m10.46,230.38c.71.41,1.83.65,2.07,1.25,4.69,11.34,9.3,22.75,16.38,32.83,5.04,7.18,9.98,14.85,16.59,20.35,5.09,4.24,8.53,9.93,14.07,13.61,5.63,3.75,10.59,8.58,16.42,11.95,8.65,5.02,17.79,9.18,26.75,13.66.79.4,1.75.44,2.64.65.98.86,1.96,1.72,2.93,2.58-9.81-.55-19.08-3.25-28.18-6.83-14.97-5.89-27.05-15.83-37.67-27.52-5.58-6.13-10.41-13.01-15.05-19.91-6-8.92-10.11-18.78-12.92-29.17-.22-.4-.44-.81-.67-1.21,0,0,.01.01.01.01-.15-.63-.3-1.25-.44-1.88-.2-.61-.39-1.23-.59-1.84.03-.07.1-.16.08-.21-.06-.13-.15-.25-.23-.37-.13-.42-.27-.84-.4-1.27-.48-1.81-.95-3.62-1.43-5.44-.12-.42-.24-.84-.36-1.26Z"/>
  <path class="h" d="m114.98,147.51c1.13.26,2.35.33,3.37.82,1.03.49,1.86,1.4,2.77,2.12-2.96,3.77-2.95,8.01-1.96,12.4-1.79,1.6-3.59,3.2-5.38,4.79l-.03.02c-.37.04-.73.09-1.1.13l-.03-.04c.87-1.51,1.74-3.02,2.58-4.47-6.8,2.72-13.43,5.71-20.3,8.01-6.92,2.32-14.14,2.32-21.33,1.06-8.67-1.52-18.11-4.97-20.34-7.66,2.18,0,4.08-.04,5.97,0,14.09.32,27.12-2.74,38.49-11.58,5.03-3.91,10.84-5.87,17.29-5.61Z"/>
  <path class="h" d="m76.35,99.94c2.92,1.89,5.95,3.64,8.75,5.7,7.23,5.31,12.75,12.09,16.79,20.08.58,1.14.9,2.4,1.51,4.06-24.13-2.53-38.58-18-51.26-36.03l-.94.65c2.42,4.47,4.48,9.18,7.32,13.37,6.87,10.13,16.13,17.53,27.29,22.55,1.97.89,4,1.67,6,2.5-2.4-.36-5-.24-7.16-1.16-19.28-8.18-31.37-23.01-38.28-42.36-1.49-4.17-2.11-8.64-3.14-12.98.6.74,1.36,1.4,1.77,2.23,3.14,6.39,6.83,12.35,12.19,17.18,6.15,5.53,12.69,10.43,20.7,12.95,1.28.4,2.67.43,4.95.78-.91-1.86-1.27-2.96-1.93-3.85-1.44-1.94-3.04-3.78-4.57-5.66Zm-25.1-7.71l.21.02-.09-.22-.12.2Z"/>
  <path class="b" d="m176.09,123.12c.08,2.93.28,5.87.18,8.8-.03.91-.67,2.22-1.41,2.61-10.97,5.73-21.26,12.45-30.84,20.29-.3.25-.67.42-1.38.86-.89-6.57-2.49-12.84-.72-19.24.28-1.02,1.2-1.99,2.05-2.69,2.74-2.26,5.58-4.42,8.42-6.56,4.78-3.6,9.6-7.16,14.4-10.74,3.1,2.23,6.2,4.45,9.3,6.68Z"/>
  <path class="g" d="m43.92,161.65c-.02-.43-.17-1.21-.05-1.24,8.33-2.87,14.01-9.66,21.1-14.37,8.8-5.86,18.13-9.36,28.78-8.19,2.92.32,5.75,1.49,8.62,2.26-5.36.69-10,3.03-14.11,6.42-6.2,5.1-12.31,10.31-18.45,15.48h.06c-1,.24-2.01.48-3.01.72-3.31.21-6.62.66-9.92.55-4.2-.13-8.39-.71-12.59-1.1,0,0,.03.05.03.05-.15-.19-.3-.38-.45-.57Z"/>
  <path class="i" d="m94.29,48.75c.37.14.83.19,1.1.45,6.72,6.49,13.55,12.89,20.08,19.57,3.35,3.43,6.51,7.15,9.09,11.17,1.19,1.86,1.35,4.83.99,7.14-.88,5.55-1.97,10.98-.87,16.67.71,3.65-.86,6.63-4.01,8.69-3.51-3.6-5.34-7.85-5.05-12.93.34.48.67.95,1.01,1.43.3-.12.6-.24.9-.36-1.24-3.62-2.47-7.24-3.71-10.86l-2.37-4.16c-2.01-6.9-5.61-12.98-9.8-18.72-3.97-5.43-6.01-11.6-7.36-18.07Z"/>
  <path class="b" d="m258.74,12.99c-3.43,4.98-7.17,9.78-10.21,14.99-6.44,11.05-12.51,22.32-18.74,33.51-.47.84-.93,1.69-1.74,3.15-1.13-7.86-2.07-15.02-3.22-22.15-.58-3.57-1.34-7.15-2.43-10.59-.98-3.06-.74-5.2,2.61-6.26.83,2.97,1.65,5.93,2.52,9.06,4-3.35,7.55-6.87,11.62-9.63,6.34-4.3,13.04-8.07,19.59-12.07Z"/>
  <path class="g" d="m76.35,99.94c1.53,1.88,3.13,3.71,4.57,5.66.66.89,1.02,1.99,1.93,3.85-2.28-.35-3.68-.38-4.95-.78-8.01-2.52-14.55-7.42-20.7-12.95-5.36-4.82-9.05-10.79-12.19-17.18-.41-.83-1.17-1.49-1.77-2.23-.63-4.96-1.28-9.91-1.89-14.87-.08-.66-.01-1.33-.01-2.28.98.83,1.71,1.44,2.43,2.06,4.48,5.51,8.93,11.04,13.46,16.51,5.85,7.07,11.77,14.08,17.67,21.12.52.29,1.04.58,1.55.88l-.1.21Z"/>
  <path class="b" d="m387.75,272.42c-1.92,9.15-5.91,17.93-5.8,28.16,1.68-.73,2.48-1.08,3.29-1.43-.57,1.13-.84,2.68-1.75,3.31-6.41,4.44-12.94,8.69-19.45,12.97-.31.2-.78.15-1.18.21,0,0,.04.04.04.04,2.68-7.75,5.69-15.4,7.91-23.28,1.61-5.71,2.29-11.71,3.11-17.62.37-2.63,1.09-4.24,4.06-4.49,3.31-.28,6.59-1,9.88-1.53-.03,1.22-.07,2.44-.1,3.66Z"/>
  <path class="f" d="m261.75,14.78c.92-1.41,1.85-2.82,2.77-4.22.15,15.51-2.2,30.31-6.36,44.85-.78,2.72-2.06,4.56-4.82,5.64-3.98,1.56-7.81,3.52-11.7,5.32.15-1.2.19-2.42.48-3.59.86-3.53,1.82-7.03,2.73-10.54,0,0,.21-.1.21-.1,1.95-.63,3.89-1.25,5.84-1.88-.1-.37-.21-.75-.31-1.12-1.95.5-3.9.99-5.85,1.49-1.86.45-3.71.9-6.29,1.53.91-1.35,1.43-2.12,1.96-2.9.13.26.26.75.39.75,3.35.04,6.23-2.03,7.55-4.99,3.9-8.69,7.92-17.32,11.85-25.99.62-1.37,1.03-2.82,1.54-4.24Z"/>
  <path class="b" d="m285.55,109.03c-3.16,3.64-6.31,7.27-9.62,11.08,15.98,6.05,31.77,13.42,50.09,15.08-3.83,4.4-5.96,9.02-10.74,11.21-5.37-3.2-10.62-6.63-16.14-9.56-9.59-5.09-19.77-8.74-30.32-11.31-.77-.19-1.52-.48-2.8-.88,2.51-2.19,4.75-4.13,6.97-6.1,3.25-2.88,6.44-5.83,9.76-8.62.69-.58,1.85-.61,2.79-.9Z"/>
  <path class="c" d="m301.32,56.51c-.71.54-1.34,1.34-2.13,1.57-14.1,4.19-28.21,8.56-40.97,15.95-8.86,5.12-17.2,11.26-25.25,17.61-6.01,4.75-11.19,10.55-16.7,15.92-.61.6-.92,1.51-1.37,2.28-1.88,1.49-3.88,1.84-6.04.63,1.57-2.58,2.93-5.31,4.73-7.71,8.55-11.37,19.34-20.01,31.65-27.19,17.48-10.19,36.67-14.82,56.08-19.06Z"/>
  <path class="c" d="m256.9,403.37c2.69,4.81,4.8,10.08,8.18,14.36,11.93,15.11,27.68,24.1,46.72,26.86,16.63,2.41,32.63-.63,48.11-6.83,2.4-.96,4.87-1.76,7.3-2.64-7.75,5.65-16.58,9.03-25.72,11.39-6.08,1.57-12.41,2.96-18.64,2.97-7.12.01-14.36-1.09-21.35-2.62-8.63-1.9-16.24-6.26-23.65-11.18-11.57-7.68-18.16-18.92-23.87-30.95-.54-1.13-.52-2.52-.77-3.79,2.79-1.55,2.64,1.34,3.68,2.43Z"/>
  <path class="b" d="m108.31,327.27c-.98-.86-1.96-1.72-2.93-2.58-4.32-7.39-8.65-14.78-12.95-22.18-.7-1.21-1.24-2.53-1.85-3.79,5-.68,9.99-1.42,15-1.97.73-.08,1.97.52,2.26,1.14,4.44,9.61,8.77,19.27,13.33,29.38-3.9.14-8.13.3-12.36.45-.18-.17-.36-.33-.54-.5l.05.04Z"/>
  <path class="b" d="m396.37,301.73c-2.12,1.75-4.77,3.13-6.28,5.3-6.45,9.3-12.57,18.83-18.81,28.27-5.7-1.25-11.4-2.5-17.26-3.79,3.46-6.86,8.95-10.91,14.46-14.79,6.63-4.66,13.43-9.1,20.39-13.25,2.1-1.25,4.97-1.21,7.49-1.76Z"/>
  <path class="h" d="m115.63,99.5c-.3,5.08,1.54,9.33,5.05,12.93-.2.16-.4.32-.6.48-.6.12-1.2.24-1.79.36.16.1.32.21.48.31-.71.16-1.42.43-2.13.44-.67.01-1.6-.6-1.98-.33-3.03,2.18-4.81-.14-6.53-1.87-3.66-3.69-7.13-7.58-10.68-11.39-1.2-3.05-2.4-6.09-3.6-9.14.38-.12,1.04-.43,1.1-.34.89,1.33,1.71,2.72,2.54,4.1-1.55-5.34-3.98-10.37-3.86-15.52,3.5,4.59,7.02,9.37,10.76,13.97.74.91,2.36,1.09,3.58,1.6.08-1.25.52-2.61.17-3.72-1.32-4.25-2.95-8.4-4.33-12.63-.54-1.68-.71-3.48-1.17-5.9,1.05.64,1.4.73,1.51.94,2.06,3.78,4.07,7.59,6.16,11.36.14.26.75.26,1.15.38l2.37,4.16-.08.05c-.27-.24-.55-.47-.82-.71-.15.07-.29.15-.44.22.43.96.85,1.91,1.28,2.87l.02.06c.6,2.42,1.2,4.83,1.8,7.25l.03.06Zm2.91,12c-.1-.14-.19-.27-.28-.39-.11.15-.28.29-.32.45-.02.1.17.24.27.37.11-.14.23-.28.34-.42Z"/>
  <path class="i" d="m353.81,389.94c-.11-.58-.21-1.17-.32-1.75,1.5-.04,3.01.03,4.5-.15,4.17-.49,5.67-2.18,5.62-6.61h-5.6c4.94-2.32,9.87-4.65,14.81-6.97.4-.32.8-.65,1.21-.97.12-.01.21-.07.28-.18,4.89-5.55,9.78-11.09,14.67-16.64-.34,1.9-.42,3.89-1.08,5.67-1.23,3.3-3.16,6.36-4.13,9.72-.95,3.28-2.58,5.86-5.09,8.01-1.47,1.25-2.93,2.51-4.4,3.76,1.26.02,2.25-.38,3.14-.93,4.18-2.58,7.13-6.32,9.14-10.67,2.35-5.09,4.29-10.37,6.49-15.76.29.94.52,1.69.75,2.44-.76,4.04-1.07,8.23-2.37,12.09-3.54,10.58-11.08,16.77-21.99,19.2-5.12,1.14-10.07,1.36-15.08-.14-.16-.12-.34-.16-.54-.12Z"/>
  <path class="b" d="m88.35,295.42c-1.93-4.73-3.83-9.47-5.8-14.18-1.74-4.17-3.54-8.31-5.32-12.46,5.08.3,10.15.6,15.23.9,4.28,6.84,8.68,13.61,12.78,20.56,1.57,2.67.91,3.85-2.24,4.36-4.66.76-9.38,1.14-14.08,1.68-.19-.29-.38-.57-.57-.86Z"/>
  <path class="g" d="m111.46,85.54c-.39-.12-1-.12-1.15-.38-2.08-3.77-4.1-7.58-6.16-11.36-.11-.21-.46-.3-1.51-.94.46,2.41.63,4.22,1.17,5.9,1.37,4.23,3.01,8.38,4.33,12.63.35,1.12-.09,2.48-.17,3.72-1.22-.52-2.84-.7-3.58-1.6-3.74-4.59-7.26-9.37-10.76-13.97-.12,5.15,2.31,10.17,3.86,15.52-.83-1.38-1.65-2.76-2.54-4.1-.06-.09-.72.22-1.1.33-.69-3.98-1.37-7.96-2.06-11.93.07-1.59.15-3.17.22-4.76.02-.49.03-.98.05-1.47-.05-5.59-.31-11.19-.07-16.77.12-2.63,1.21-5.21,1.87-7.81,0-.03.17-.06.22-.03.08.05.14.14.2.22,1.35,6.47,3.39,12.63,7.36,18.07,4.19,5.74,7.79,11.82,9.8,18.72Z"/>
  <path class="i" d="m158.78,70.71c4.16,7.32,6.77,15.04,6.16,23.6-.48,6.71-1.46,13.26-5.45,18.99-.75,1.08-.84,2.62-1.23,3.95-5.03,2.96-10.04,5.97-15.13,8.84-.68.38-1.76.05-2.66.05,4.33-6.42,8.92-12.69,12.88-19.33,1.84-3.09,2.46-6.91,3.64-10.39.42-2.22,1.12-4.43,1.19-6.65.16-5.41-.01-10.84.03-16.25,0-.94.38-1.87.58-2.81Z"/>
  <path class="g" d="m157.02,58.58c-2.22,5.69-4.21,11.49-6.76,17.04-1.27,2.75-3.56,5.04-5.38,7.53-.43.77-.87,1.54-1.3,2.3,0,0,.02-.06.01-.06-2.41,4.25-4.87,8.48-7.18,12.78-.83,1.54-1.28,3.27-1.91,4.91-.06-.58-.28-1.19-.15-1.72,1.44-5.66,2.96-11.31,4.41-16.97.29-1.12.34-2.29.5-3.44-.29-.08-.58-.16-.87-.24-.88,1.32-1.86,2.58-2.64,3.96-3.79,6.72-5.45,14.08-6.36,21.65-2.32-8.71-.32-16.85,3.07-24.89,2.28-5.4,6.4-9.18,10.56-12.98,2.69-2.46,5.59-4.72,8.02-7.39,1.88-2.07,3.2-4.65,5.19-7.65.34,2.22.56,3.7.79,5.18Z"/>
  <path class="i" d="m44.34,162.18c4.2.39,8.39.97,12.59,1.1,3.3.1,6.61-.35,9.92-.55,1-.24,2.01-.48,3.01-.72,0,0-.06,0-.06,0,1.1-.07,2.22-.01,3.29-.22,7.51-1.48,13.98-5.14,20-9.71,5.43-4.13,11.33-7.01,18.35-6.93,1.18.79,2.37,1.58,3.55,2.37-6.46-.26-12.26,1.7-17.29,5.61-11.36,8.85-24.4,11.9-38.49,11.58-1.9-.04-3.79,0-5.97,0,2.23,2.69,11.67,6.14,20.34,7.66,7.19,1.26,14.42,1.26,21.33-1.06,6.87-2.3,13.5-5.29,20.3-8.01-.84,1.46-1.71,2.96-2.58,4.47-1.77.61-3.7.95-5.28,1.88-8.14,4.78-17.03,7.41-26.31,6.96-6.23-.31-12.35-2.66-18.53-4.04-1.39-.31-2.83-.4-4.25-.59-4.64-3.26-9.27-6.52-13.91-9.79Z"/>
  <path class="b" d="m256.9,403.37c-1.04-1.09-.89-3.99-3.68-2.43-.63-2.85-1.26-5.71-1.89-8.56.03-.18,0-.35-.08-.51,0-.33,0-.66.01-.99,1.4.03,2.83.28,4.18.05,3.82-.66,7.6-1.55,11.4-2.29,7.2-1.39,12.9,1.76,18.19,6.11-5.44,1.19-10.86,2.48-16.32,3.54-2.15.41-2.56,1.28-2.11,3.32.96,4.33,3.12,7.86,6.37,10.82,1.1,1,2.07,2.14,2.96,3.42-6.62-3.74-13.51-7.05-19.03-12.47Z"/>
  <path class="b" d="m233.57,108.6c7.42,1.41,14.84,2.8,22.25,4.24,2.08.4,4.13.95,6.19,1.44-.49,2.37-.84,4.78-1.56,7.08-.24.76-1.47,1.77-2.2,1.73-9.55-.52-19.08-1.21-28.62-1.87-.17-.01-.33-.19-1.14-.69,1.66-3.89,3.36-7.91,5.07-11.92Z"/>
  <path class="c" d="m90.07,205.43c-.22,1.82-.44,3.65-.67,5.47-2.81-1.94-5.56-3.96-8.43-5.8-11.57-7.41-22.8-15.45-34.87-21.94-10.09-5.43-21.18-8.99-31.77-13.49-1.88-.8-3.53-2.14-5.29-3.23,8.28,2.65,16.63,5.12,24.83,8,17.22,6.04,33,14.96,48.32,24.74,2.81,1.79,5.27,4.15,7.88,6.25Z"/>
  <path class="b" d="m340.54,394.17c-3.9,0-7.81-.01-11.71-.02-.42,0-.83-.01-1.25-.02-2.37-.37-4.73-.94-7.11-1.07-10.37-.57-20.42-2.77-30.37-5.96,18.46,2.57,36.57.96,54.36-4.45.19.33.38.65.57.98-1.46,1.08-2.78,2.5-4.42,3.16-2.99,1.22-6.17,1.97-9.26,2.97-.9.29-1.75.75-2.54,1.81,1.15.07,2.31.11,3.46.21,8.55.78,17.09,1.8,25.66,2.26,4.5.24,9.06-.51,13.6-.73,1.36-.07,2.73.14,4.1.23-1.45.37-2.9.74-4.35,1.11-1.03.16-2.06.31-3.09.47.04.23.08.47.12.7,1.05,0,2.1,0,3.14,0,3.02-.02,6.03-.05,9.05-.07,1.32.29,2.65.58,4.31.95-9.01,2.42-17.48.61-26.03-.68-5.98-.91-12.05-1.25-18.08-1.84,0,0-.17,0-.17,0Z"/>
  <path class="b" d="m208.86,110.47c2.16,1.21,4.16.87,6.04-.63,5.16-.34,10.31-.68,15.47-1.02-1.42,3.78-2.76,7.6-4.34,11.32-.34.8-1.49,1.61-2.37,1.76-5.72.96-11.48,1.73-17.22,2.57-2.06.3-4.12.64-6.96.37,3.13-4.79,6.25-9.58,9.38-14.37Z"/>
  <path class="h" d="m374.35,411.81c.47.62.93,1.23,1.4,1.85-1.8.61-3.58,1.61-5.42,1.75-5.52.41-11.14,1.13-16.58.53-7.67-.84-14.74-3.78-20.04-9.8-.59-.67-1.06-2.41-.7-2.78.93-.95,2.43-2.02,3.58-1.9,1.59.16,3.16,1.24,4.59,2.16,2.13,1.37,4.04,3.07,6.19,4.4,1.53.95,3.3,1.53,4.96,2.27-3.51-3.44-7.22-6.38-11.16-8.96-1.71-1.12-3.9-1.52-5.86-2.25,2.37-.57,4.75-1.14,7.12-1.7,4.91,4.01,9.56,8.41,14.8,11.93,5.09,3.41,11.04,4.12,17.11,2.5Zm-19.44-1.48c-.16-.04-.32-.09-.49-.11-.02,0-.06.14-.1.21.16.05.32.1.48.13.02,0,.06-.14.1-.22Z"/>
  <path class="f" d="m309.07,378.84c5.89-.81,11.87-1.23,17.66-2.5,11.44-2.49,22.26-6.78,32.48-12.55,1.11-.63,2.47-.82,3.71-1.21-8.01,10.2-19.26,14.57-31.34,17.56-9.9,2.45-19.93,3.52-30.1,3.05-2.67-.12-5.32-.81-7.97-1.24.8-.62,1.6-1.24,2.4-1.86,4.39-.42,8.77-.84,13.16-1.26Z"/>
  <path class="c" d="m258.74,12.99c-6.55,4-13.24,7.78-19.59,12.07-4.07,2.76-7.62,6.28-11.62,9.63-.87-3.13-1.7-6.09-2.52-9.06,4.31-2.87,8.45-6.07,12.98-8.54,7.87-4.28,16.01-8.08,25.77-9.57-1.94,2.12-3.48,3.8-5.02,5.47Z"/>
  <path class="c" d="m202.73.16c-8.37,7.46-17.2,14.48-24.96,22.52-6.27,6.5-11.31,14.19-16.77,21.45-1.49,1.98-2.5,4.31-3.82,6.43-.23.36-.89.46-1.34.68-.85.44-1.69.88-2.54,1.33-.24-.2-.48-.39-.72-.59,5.01-7.67,9.52-15.74,15.17-22.91,6.03-7.65,12.96-14.62,19.85-21.53,2.88-2.89,6.55-5.07,10.12-7.14,1.29-.74,3.32-.2,5.02-.24Z"/>
  <path class="h" d="m111.43,145.14c-7.02-.08-12.91,2.81-18.35,6.93-6.02,4.57-12.49,8.23-20,9.71-1.07.21-2.19.16-3.29.22,6.15-5.17,12.25-10.38,18.45-15.48,4.11-3.38,8.75-5.73,14.11-6.42,3.02,1.67,6.04,3.35,9.07,5.02Z"/>
  <path class="b" d="m75.66,265.39c-1.37-6.1-2.49-12.26-4.21-18.26-.97-3.41-2.9-6.56-4.42-9.81-.42-.9-.9-1.77-1.35-2.66.59.33,1.37.52,1.74,1.01,7.45,9.83,14.86,19.68,22.26,29.55.22.3.24.75.35,1.12-4.79-.32-9.59-.64-14.38-.96Z"/>
  <path class="g" d="m388.97,356.68c-4.89,5.55-9.78,11.09-14.67,16.64,1.66-2.82,3.32-5.65,4.97-8.47-1.77.17-2.93.93-4.17,1.49-4.43,2.02-8.89,3.97-13.34,5.95,5.34-4.89,10.54-9.96,16.08-14.61,4.49-3.77,9.4-7.03,14.1-10.53,1.46-1.09,1.44-1.11,2.5-.02-1.83,3.19-3.65,6.37-5.48,9.56Z"/>
  <path class="c" d="m436.29,273.64c1.51,0,3.03,0,4.54.01-.06.2-.11.4-.17.6-.15.21-.29.43-.44.64-5.11,8.62-10.02,17.36-15.4,25.81-2.78,4.37-6.28,8.3-9.65,12.26-3.5,4.11-7.23,8.01-10.86,12,.46-1.08.78-2.25,1.41-3.21,9.75-14.9,19.56-29.76,29.3-44.66.53-.8.63-1.88.93-2.83.11-.21.22-.42.33-.63Z"/>
  <path class="g" d="m374.35,411.81c-6.06,1.62-12.02.91-17.11-2.5-5.25-3.51-9.89-7.91-14.8-11.93,9.66-.32,18.44,1.82,25.57,8.88,1.99,1.97,4.22,3.7,6.34,5.55Z"/>
  <path class="e" d="m309.07,378.84c-4.39.42-8.77.84-13.16,1.26-1.02-.24-2.05-.48-3.07-.71,11.43-5.07,22.4-10.95,32.34-18.62,1.19,1.41,2.37,2.81,3.9,4.61-3.65,2.51-7.41,5.15-11.22,7.72-2.9,1.96-5.85,3.83-8.78,5.74Z"/>
  <path class="f" d="m324.61,398.36c2.35,5.08,4.69,10.16,6.92,14.97-4.2-.13-25.83-12.19-30.81-17.71,5.91.79,11.49,1.54,17.07,2.29-1.01.8-2.03,1.6-3.04,2.4-.02.08-.05.15-.07.23.04-.06.08-.12.12-.18,3.27-.67,6.55-1.33,9.82-2Z"/>
  <path class="i" d="m335.32,399.09c1.97.73,4.15,1.13,5.86,2.25,3.94,2.58,7.65,5.52,11.16,8.96-1.66-.74-3.43-1.32-4.96-2.27-2.15-1.33-4.07-3.03-6.19-4.4-1.43-.92-3-2-4.59-2.16-1.15-.12-2.65.96-3.58,1.9-.36.37.1,2.1.7,2.78,5.3,6.02,12.36,8.97,20.04,9.8,5.45.59,11.06-.12,16.58-.53,1.84-.14,3.61-1.14,5.42-1.75,1.86.42,1.66,1.58.28,1.97-4.78,1.36-9.59,2.84-14.49,3.46-5.96.74-11.88.09-17.64-2.18-6.2-2.44-9.94-7.12-12.79-12.74-.33-.66-.06-2.09.48-2.62,1.04-1.03,2.46-1.66,3.73-2.46Z"/>
  <path class="h" d="m58.25,171.97c1.42.19,2.86.28,4.25.59,6.18,1.38,12.3,3.74,18.53,4.04,9.28.46,18.17-2.18,26.31-6.96,1.58-.93,3.51-1.27,5.28-1.88,0,0,.03.04.03.04-.43.56-.87,1.11-1.3,1.67,0,0-.04.05-.04.05-.33.14-.65.27-.98.41.38.67.76,1.33,1.13,2,0,0-.21.11-.21.11-1.12.65-2.24,1.29-3.36,1.94,0,0-.08.06-.08.06-.4.11-.8.23-1.2.34-4.4,1.62-8.68,3.82-13.22,4.75-12.62,2.57-24.19-1.02-35.15-7.15Z"/>
  <path class="b" d="m324.05,417.92c-6.57-3.43-13.15-6.86-19.71-10.31-1.06-.56-2.06-1.25-3.09-1.88.12-1.79.19-3.51-2.34-1.74-4.47-3.06-8.94-6.11-13.41-9.17,1.42-.82,2.84-1.64,4.26-2.47,3.52,2.67,6.89,5.57,10.58,7.97,6.44,4.21,13.11,8.07,19.62,12.18,1.64,1.03,3.04,2.42,4.56,3.65-.16.59-.31,1.18-.47,1.77Z"/>
  <path class="b" d="m172.99,96.98c2.23-2.82,3.81-5.9,4.11-9.57.1-1.24.53-2.45.89-4.07.38.93.59,1.45.8,1.97-.93,9.73-1.89,19.45-2.75,29.19-.19,2.1-.02,4.24-.01,6.35-.98-.43-2.05-.73-2.91-1.32-1.95-1.34-3.79-2.83-5.68-4.26,3.14-5.7,5.34-11.69,5.55-18.29Z"/>
  <path class="h" d="m129.39,106.31c.91-7.57,2.57-14.93,6.36-21.65.78-1.38,1.75-2.64,2.64-3.96.29.08.58.16.87.24-.16,1.15-.21,2.33-.5,3.44-1.45,5.66-2.97,11.31-4.41,16.97-.13.53.09,1.15.15,1.72.26.51.77,1.03.75,1.53-.19,4.96-.44,9.93-.73,14.88-.06,1.07-.35,2.14-.53,3.2-1.53-5.46-3.06-10.93-4.59-16.39Z"/>
  <path class="b" d="m59.68,227.24c-2.15-1.61-4.75-2.86-6.35-4.9-3.69-4.68-8.76-5.23-14.04-5.95-4.45-.61-8.82-1.82-13.23-2.77.05-.25.09-.51.14-.76,5.68.66,11.37,1.33,17.05,1.99.11-.34.21-.69.32-1.03-1.05-1-2.17-1.94-3.15-3-6.23-6.79-12.41-13.62-18.63-20.42-1.08-1.18-1.15-1.9.69-2.03,0,0-.03-.02-.03-.02.2.21.4.42.6.64,8.22,8.34,16.44,16.67,24.62,25.05.38.39.36,1.17.69,2.34,4.93,1.56,7.57,6.82,11.32,10.87Z"/>
  <path class="h" d="m361.76,372.29c4.45-1.98,8.91-3.93,13.34-5.95,1.25-.57,2.4-1.32,4.17-1.49-1.66,2.82-3.32,5.64-4.97,8.47-.06.11-.15.16-.28.18-.4.32-.8.65-1.2.97-4.94,2.32-9.87,4.65-14.81,6.97h-.02c-1.21.41-2.41.81-3.62,1.21,0,0-.04.02-.04.02-.2-.04-.4-.03-.6.02v-.03c0-.9,0-1.8,0-2.7l.02-.07c.6-.94,1.21-1.88,1.81-2.82,2.07-1.59,4.14-3.18,6.2-4.78Z"/>
  <path class="b" d="m244.85,52.23c-.92,3.51-1.87,7.02-2.73,10.54-.28,1.16-.32,2.39-.48,3.59-3.79,2.17-7.58,4.34-11.37,6.51-.23-.23-.46-.46-.7-.69,2.49-5.66,4.84-11.39,7.53-16.95,1.52-3.13,4.97-2.45,7.74-3Z"/>
  <path class="c" d="m333.52,136c-2.05-.28-4.11-.56-6.76-.92,1.72-2.48,3.22-4.47,4.53-6.56,4.24-6.74,8.4-13.53,12.61-20.29.58-.93,1.3-1.78,1.95-2.67-2.18,6.53-4.14,13.14-6.63,19.55-1.47,3.79-3.77,7.27-5.7,10.88Z"/>
  <path class="b" d="m261.75,14.78c-.51,1.42-.92,2.88-1.54,4.24-3.93,8.67-7.95,17.31-11.85,25.99-1.33,2.96-4.21,5.03-7.55,4.99-.13,0-.26-.49-.39-.75,4.13-9.79,9.9-18.63,15.9-27.32,1.7-2.46,3.61-4.77,5.43-7.15Z"/>
  <path class="b" d="m192.7,31.83c.26.82.78,1.65.73,2.45-.5,8.21-1.09,16.42-1.64,24.63-.05.8.01,1.61.02,2.41.09.16.19.32.29.48-2.16,1.41-4.32,2.82-6.47,4.24-.27-.14-.53-.28-.8-.42.73-4.39,1.31-8.81,2.23-13.16,1.21-5.73,2.65-11.42,4.09-17.1.31-1.23,1.03-2.36,1.56-3.53Z"/>
  <path class="e" d="m75.66,265.39c4.79.32,9.59.64,14.38.96,0,0-.02-.02-.02-.02.25.22.51.44.76.66.56.9,1.12,1.8,1.68,2.7-5.08-.3-10.15-.6-15.23-.9-7.14-1.67-14.39-2.98-21.39-5.13-5.22-1.6-10.12-4.27-15.16-6.46,1.16.33,2.31.68,3.48.98,5.14,1.34,10.28,2.66,15.42,3.99,0,0-.04-.05-.04-.05.82.32,1.65.63,2.47.95,4.55.77,9.1,1.55,13.65,2.32Z"/>
  <path class="b" d="m382.39,417.45c-.65.87-1.13,2.02-1.99,2.55-4.99,3.11-10.59,4.61-16.35,5.2-9.86,1.01-19.47-.72-28.98-3.18-2.24-.58-4.51-1.08-6.76-1.62-.72-1.41-1.45-2.83-2.17-4.24,2.83.83,5.78,1.38,8.46,2.55,15.61,6.81,31.03,6.17,46.36-.85.45-.21.96-.27,1.44-.41Z"/>
  <path class="b" d="m120.25,123.44c.86.7,2.1,1.23,2.51,2.13,4.91,10.8,9.63,21.68,14.58,32.46,1.06,2.32.57,3.53-1.77,4.62-5.55-12.76-11.07-25.44-16.58-38.13l1.26-1.08Z"/>
  <path class="f" d="m392.02,393.63c3.32-3.85,7.72-3.29,11.96-2.66,1,.15,2.28,1.74,2.5,2.86.19.94-.71,2.67-1.6,3.14-3.81,2.02-7.87,2.97-12.14,1.33-.24-1.55-.48-3.11-.73-4.66Z"/>
  <path class="h" d="m388.97,356.68c1.83-3.18,3.65-6.37,5.48-9.56-.22,3.93-.44,7.86-.66,11.78-.23-.75-.46-1.49-.75-2.44-2.2,5.39-4.14,10.67-6.49,15.76-2.01,4.35-4.96,8.1-9.14,10.67-.9.55-1.89.95-3.14.93,1.47-1.25,2.94-2.51,4.4-3.76,2.51-2.15,4.14-4.73,5.09-8.01.97-3.36,2.9-6.42,4.13-9.72.66-1.78.74-3.77,1.08-5.67Z"/>
  <path class="i" d="m111.47,171.92c-.38-.67-.76-1.33-1.14-2,.33-.13.65-.27.98-.41,0,0,.04-.05.04-.05.8-.6,1.6-1.2,2.4-1.8,0,0,.03-.02.03-.02,2.68-1.7,5.37-3.4,8.05-5.1-.2-.31-.41-.63-.61-.94-.68.41-1.37.83-2.05,1.24-.99-4.39-1-8.63,1.96-12.4,5.61,1.43,5.8,1.7,4.95,7.23-.21.63-.42,1.26-.63,1.89-3.42,5.52-8.6,9.05-13.98,12.35Zm11.44-10.96l-.13.14s.16-.12.16-.12l.1-.14-.13.11Z"/>
  <path class="e" d="m289.76,392.36c-1.42.82-2.84,1.64-4.26,2.47-.15-.06-.31-.08-.47-.08-5.29-4.35-10.99-7.5-18.19-6.11-3.81.73-7.58,1.63-11.4,2.29-1.35.23-2.78-.02-4.18-.05.39-.51.73-1.41,1.19-1.47,8.8-1.29,17.61-3.59,26.49-2.25,3.78.57,7.22,3.4,10.81,5.21Z"/>
  <path class="b" d="m264.03,116.52c1.24-.52,2.76-.74,3.68-1.6,6.22-5.86,12.3-11.85,18.43-17.8.35-.07.7-.13,1.05-.2-.57,1.73-.64,4.02-1.81,5.11-6.95,6.47-14.15,12.67-21.29,18.94-.28.24-.74.28-1.12.41l.04.04c.34-1.63.68-3.26,1.02-4.89Z"/>
  <path class="b" d="m290.57,93.52c4.01-3.38,7.98-6.79,12.04-10.11,2.57-2.11,5.19-4.18,7.94-6.04.8-.54,2.42-1.89,3,.53-7.87,6.8-15.74,13.61-24.37,21.07.13-1.81.2-2.78.26-3.74.38-.57.75-1.13,1.13-1.7Z"/>
  <path class="b" d="m329.37,78.77c-.72.49-1.38,1.19-2.17,1.43-3.34,1-6.69,2-10.1,2.73-2.65.56-4.8,1.58-6.81,3.53-7.11,6.88-14.44,13.54-21.69,20.28-.54-.1-1.07-.2-2.17-.41,5.85-5.37,11.24-10.47,16.8-15.38,3.6-3.18,7.44-6.1,11.17-9.13,3.78-1.01,7.57-2.02,11.36-3.03,0,0-.03.01-.03.01,1.22,0,2.43-.02,3.65-.03Z"/>
  <path class="i" d="m133.98,122.7c.18-1.07.47-2.13.53-3.2.29-4.96.54-9.92.73-14.88.02-.5-.49-1.02-.75-1.53.63-1.64,1.08-3.38,1.91-4.91,2.31-4.3,4.78-8.53,7.18-12.78-1.13,2.91-2.59,5.75-3.34,8.75-1.33,5.35-2.52,10.76-3.25,16.22-.62,4.68-.51,9.46-.73,14.2-.76-.62-1.53-1.24-2.29-1.86Z"/>
  <path class="b" d="m114.37,392.68c-6.13,5.31-13.61,7.56-21.35,8.78-4.66.74-9.48.41-14.22.57.98-.2,1.95-.47,2.93-.59,9.06-1.12,17.93-2.92,25.88-7.73.96-.58,1.65-1.6,2.46-2.41,1.43.46,2.87.92,4.3,1.38Z"/>
  <path class="e" d="m177.7,71.2c.63,1.49,1.26,2.97,1.89,4.46-.02.47-.05.93-.07,1.4-.91-.9-2.03-1.66-2.69-2.71-3.06-4.92-4.58-10.42-4.89-16.12-.32-5.77-.07-11.58-.07-17.37h.75c.1.47.19.95.29,1.42.36,6.39.37,12.83,1.21,19.16.45,3.35,2.34,6.51,3.58,9.76Z"/>
  <path class="c" d="m387.75,272.42c.03-1.22.07-2.44.1-3.66,3.68-.56,7.34-1.4,11.04-1.61,7.45-.41,14.92-.47,22.39-.68-.48.15-.96.44-1.43.42-11.1-.47-21.55,2.83-32.09,5.53Z"/>
  <path class="h" d="m358.01,381.44h5.6c.05,4.43-1.45,6.12-5.62,6.61-1.48.17-3,.1-4.5.15-.08-.41-.16-.82-.24-1.23.02-.45.03-.89.05-1.34.14-.7.27-1.4.41-2.1.21-.28.42-.56.62-.83,0,0,.04-.02.04-.02,1.21-.4,2.41-.8,3.62-1.2h.02Z"/>
  <path class="b" d="m389.59,294.39c3.64-1.68,7.29-3.33,10.91-5.05,1.55-.74,2.92-1.39,3.16,1.18-5.32,3.3-10.64,6.6-15.97,9.89-.25-.18-.5-.36-.75-.55.88-1.83,1.76-3.65,2.64-5.48Z"/>
  <path class="e" d="m180.1,389.95c-.66-.44-1.31-.87-1.65-1.1,3.8-1.17,7.88-2.32,11.86-3.74,1.02-.36,1.72-1.59,2.57-2.42,2.59.78,5.17,1.55,7.76,2.33.03.24.07.49.1.73-6.88,1.4-13.76,2.8-20.64,4.21Z"/>
  <path class="b" d="m369.69,402.88c5.85.02,9.94,3.11,14.19,6.06-3.68,2.98-8.69.88-14.19-6.06Z"/>
  <path class="c" d="m290.57,93.52c-.38.57-.75,1.13-1.13,1.7.78-4.7,1.59-9.4,2.32-14.12.14-.9-.04-1.85-.08-2.77-.04-.25-.07-.5-.11-.75,0,0,.07-.07.07-.07.95-2.92,1.82-5.88,2.91-8.75.38-.99,1.32-1.77,2.01-2.65.25.13.49.27.74.4-.33,1.32-.67,2.64-1,3.96-1.91,7.68-3.83,15.37-5.74,23.05Z"/>
  <path class="c" d="m110.07,391.3c-.81.81-1.5,1.83-2.46,2.41-7.95,4.81-16.81,6.61-25.88,7.73-.99.12-1.95.39-2.93.59.46-.45.85-1.18,1.38-1.31,6.53-1.61,13.17-2.85,19.6-4.78,3.23-.97,6.11-3.11,9.15-4.73.38.03.76.06,1.13.09Z"/>
  <path class="c" d="m88.35,295.42c.19.29.38.57.57.86-4.06-.08-8.18.22-12.18-.33-6.17-.84-12.26-2.26-18.38-3.43,0,0,.05.02.05.02l-1.9-.65s.07.04.07.04c-.42-.2-.83-.41-1.25-.61.89-.17,1.89-.7,2.65-.46,9.89,3.15,20.06,4.27,30.37,4.56Z"/>
  <path class="e" d="m192.1,61.8c-.1-.16-.2-.32-.29-.48,4.59-4.9,9.18-9.81,13.69-14.63-3.23,5.95-6.95,11.75-12.56,16.14-.28-.34-.56-.69-.84-1.03Z"/>
  <path class="e" d="m326.13,416.16c.72,1.41,1.45,2.83,2.17,4.24,1.98,2.85,3.96,5.7,5.94,8.56h.01c-2.44-2.53-4.91-5.02-7.31-7.57-1.03-1.09-1.93-2.31-2.89-3.47.16-.59.31-1.18.47-1.77.54,0,1.07,0,1.61,0Z"/>
  <path class="e" d="m167.43,115.27c1.89,1.43,3.73,2.92,5.68,4.26.86.6,1.93.89,2.91,1.32.02.75.04,1.51.07,2.26-3.1-2.23-6.2-4.45-9.3-6.68.22-.39.43-.78.65-1.17Z"/>
  <path class="e" d="m353.81,389.94c.2-.04.38,0,.54.12-2.02,2.91-7.13,2.52-9.08-1.48,3.17.51,5.85.93,8.54,1.36Z"/>
  <path class="b" d="m353.7,383.51c-.14.7-.27,1.4-.41,2.11-.12.17-.23.34-.35.52-3.45-2.21-3.46-4.24-.07-8.18.29.64.58,1.29.87,1.93,0,0-.02.07-.02.08,0,.9-.01,1.8-.02,2.7,0,0,.01.03.01.03,0,.27-.01.55-.02.82Z"/>
  <path class="e" d="m236.47,390.06c-1.17.36-2.34.98-3.52,1.03-2.68.09-5.38.03-8.04-.24-.93-.09-1.78-.97-2.67-1.49,4.74.24,9.49.47,14.23.71Z"/>
  <path class="b" d="m392.02,393.63c.24,1.56.48,3.11.73,4.66-.1.01-.22.07-.29.03-1.47-.79-2.93-1.58-4.4-2.38,1.32-.77,2.64-1.55,3.97-2.32Z"/>
  <path class="b" d="m129.35,119.46v10.68c-2.17-2.29-2.35-6.27,0-10.68Z"/>
  <path class="c" d="m287.19,96.91c-.35.07-.7.13-1.05.2,1.18-5.18,2.32-10.37,3.59-15.53.24-.99,1-1.85,1.53-2.77-1.36,6.03-2.71,12.07-4.07,18.1Z"/>
  <path class="c" d="m325.75,78.78c-3.79,1.01-7.57,2.02-11.36,3.03,1.53-1.27,3.06-2.53,4.59-3.8.87.4,1.72,1.07,2.61,1.14,1.37.1,2.77-.22,4.16-.36Z"/>
  <path class="e" d="m371.28,394.64c1.45-.37,2.9-.74,4.35-1.11,1.95,0,4.53-1.37,4.87,2.21-3.02.03-6.03.05-9.05.07-.06-.39-.12-.78-.17-1.17Z"/>
  <path class="b" d="m125.45,159.57c.21-.63.42-1.26.63-1.89,3.17.09,5.3,1.69,6.58,4.52h.01c-1.61-.8-3.19-1.66-4.84-2.34-.71-.29-1.58-.21-2.38-.29Z"/>
  <path class="b" d="m292.83,379.38c1.02.24,2.05.48,3.07.71-.8.62-1.6,1.24-2.39,1.86-1.56-.12-3.11-.25-4.67-.37-.04-.2-.09-.4-.13-.61,1.37-.53,2.75-1.07,4.12-1.6Z"/>
  <path class="b" d="m314.74,400.31c1.01-.8,2.03-1.6,3.04-2.4,2.27.15,4.55.3,6.82.45-3.27.67-6.55,1.33-9.82,2,0,0-.05-.05-.05-.05Z"/>
  <path class="b" d="m65.69,234.65c-2.52-2.03-5.28-3.87-5.98-7.38,1.99,2.46,3.98,4.92,5.98,7.38Z"/>
  <path class="b" d="m244.75,50.63c1.95-.5,3.9-.99,5.85-1.49.1.37.21.75.31,1.12-1.95.63-3.89,1.25-5.84,1.88-.11-.5-.21-1.01-.32-1.51Z"/>
  <path class="c" d="m395.21,283.49c.36-2.53,1.38-4.5,4.18-4.99.08.09.16.18.23.26-.49.73-.98,1.47-1.47,2.2,0,0,.04-.05.04-.05-.21.53-.41,1.07-.62,1.6,0,0-.04-.03-.04-.03-.78.33-1.55.67-2.33,1Z"/>
  <path class="e" d="m327.58,394.13c.42,0,.83,0,1.25.02.92.98,1.85,1.96,3.2,3.4-2.78-.24-4-1.36-4.45-3.42Z"/>
  <path class="c" d="m433.43,266.53c-3.2-.02-6.4-.04-9.59-.06,3.2.02,6.4.04,9.59.06Z"/>
  <path class="b" d="m232.73,381.75c2.74,0,5.47.02,8.2.03-2.74,0-5.47-.02-8.2-.03Z"/>
  <path class="f" d="m10.83,231.64c.48,1.81.95,3.62,1.43,5.44-.48-1.81-.95-3.62-1.43-5.44Z"/>
  <path class="e" d="m94.21,207.92c-.58-.44-1.15-.87-1.73-1.31.57-.24,1.13-.49,1.7-.73.01.68.02,1.36.03,2.04Z"/>
  <path class="c" d="m34.49,368.12c.82,1.44,1.64,2.89,2.46,4.33-.82-1.44-1.64-2.89-2.46-4.33Z"/>
  <path class="i" d="m353.74,379.88c-.29-.64-.58-1.29-.87-1.93.89-.29,1.79-.59,2.68-.88-.6.94-1.21,1.88-1.81,2.82Z"/>
  <path class="e" d="m102.12,214.62c-.63-.54-1.25-1.09-1.88-1.63.58-.04,1.38-.32,1.67-.05.32.29.16,1.1.21,1.68Z"/>
  <path class="i" d="m107.91,173.97c1.12-.65,2.24-1.29,3.36-1.94-1.12.65-2.24,1.29-3.36,1.94Z"/>
  <path class="c" d="m40.07,360.92c-1.22.75-2.44,1.49-3.66,2.24,1.22-.75,2.44-1.49,3.66-2.24Z"/>
  <path class="b" d="m19.41,185.04c-.27.36-.55.72-.82,1.08-.19-.2-.39-.4-.58-.6.36-.27.73-.55,1.09-.82.19.03.3.14.31.34Z"/>
  <path class="c" d="m35.86,363.88c-.49.76-.98,1.52-1.47,2.27.49-.76.98-1.51,1.47-2.27Z"/>
  <path class="c" d="m36.98,372.32c.42.83.85,1.65,1.27,2.48-.42-.83-.85-1.65-1.27-2.48Z"/>
  <path class="c" d="m46.18,358.31c-1,.4-2,.81-3.01,1.21,1-.4,2-.81,3.01-1.21Z"/>
  <path class="c" d="m392.76,286.51c.45-.6.9-1.19,1.35-1.79-.45.6-.9,1.19-1.35,1.79Z"/>
  <path class="c" d="m390.37,289.6c.44-.61.87-1.21,1.31-1.81-.44.61-.87,1.21-1.31,1.81Z"/>
  <path class="c" d="m389.15,291.42c.43-.62.86-1.23,1.29-1.85-.43.62-.86,1.23-1.29,1.85Z"/>
  <path class="b" d="m245.03,381.56c.61-.02,1.22-.04,1.82-.07-.61.02-1.21.04-1.82.07Z"/>
  <path class="b" d="m92.07,73.13c-.02.49-.03.98-.05,1.47.02-.49.03-.98.05-1.47Z"/>
  <path class="c" d="m42.51,359.71c-.59.35-1.18.69-1.77,1.04.59-.35,1.18-.69,1.77-1.04Z"/>
  <path class="i" d="m118.77,113.58c-.16-.1-.32-.21-.48-.31.6-.12,1.2-.24,1.79-.36-.44.22-.87.45-1.31.67Z"/>
  <path class="c" d="m345.83,105.59c.2-.62.39-1.24.59-1.86-.2.62-.39,1.24-.59,1.86Z"/>
  <path class="f" d="m13.4,240.77c.15.63.3,1.25.44,1.88-.15-.63-.3-1.25-.44-1.88Z"/>
  <path class="b" d="m264.23,108.33s.09-.02.09-.02c-.27.26-.55.52-.82.78.09-.62.18-1.23.27-1.85.15.36.31.73.46,1.09Z"/>
  <path class="f" d="m23.05,188.97c-.2-.21-.4-.42-.6-.64.2.21.4.42.6.64Z"/>
  <path class="f" d="m13.83,242.63c.22.4.44.81.67,1.21-.22-.4-.44-.81-.67-1.21Z"/>
  <path class="c" d="m367.14,435.08c.51-.21,1.02-.42,1.54-.62-.51.21-1.02.42-1.54.62Z"/>
  <path class="c" d="m40.04,376.58c.21.43.42.85.63,1.28-.21-.43-.42-.85-.63-1.28Z"/>
  <path class="f" d="m300.11,395.19c-.07.06-.16.18-.2.17-.15-.06-.28-.17-.42-.25.07-.06.16-.18.2-.16.15.06.28.16.41.25Z"/>
  <path class="c" d="m41.87,379.02c.21.42.42.85.64,1.27-.21-.42-.42-.85-.64-1.27Z"/>
  <path class="c" d="m387.26,294.7c.21-.52.42-1.04.63-1.57-.21.52-.42,1.04-.63,1.57Z"/>
  <path class="b" d="m227.98,381.48c.21.01.41.02.61.03-.21-.01-.41-.02-.61-.03Z"/>
  <path class="c" d="m388.49,292.61c.21-.43.41-.87.62-1.3-.21.43-.41.87-.62,1.3Z"/>
  <path class="i" d="m106.62,174.36c.4-.11.8-.23,1.2-.34-.4.11-.8.23-1.2.34Z"/>
  <path class="i" d="m352.94,386.13c.12-.17.23-.34.35-.52-.02.45-.03.89-.05,1.34-.1-.27-.2-.55-.3-.82Z"/>
  <path class="e" d="m340.54,394.17s.17,0,.17,0-.17,0-.17,0Z"/>
  <path class="c" d="m392.11,287.09c.22-.22.44-.43.66-.65-.22.22-.44.43-.66.65Z"/>
  <path class="c" d="m393.95,284.66c.21-.22.43-.43.64-.65-.21.22-.43.43-.64.65Z"/>
  <path class="c" d="m394.55,284.04c.22-.22.44-.43.66-.65-.22.22-.44.43-.66.65Z"/>
  <path class="e" d="m239.23,390.63c-.28-.21-.56-.42-.84-.63.28.21.56.42.84.63Z"/>
  <path class="c" d="m387.85,293.19c.23-.22.45-.44.68-.66-.23.22-.45.44-.68.66Z"/>
  <path class="e" d="m251.25,391.86c.08.16.11.33.08.51-.2-.15-.23-.32-.08-.51Z"/>
  <path class="c" d="m42.47,380.23c.22.22.44.44.66.65-.22-.22-.44-.44-.66-.65Z"/>
  <path class="c" d="m41.27,378.41c.21.22.42.43.64.65-.21-.22-.42-.43-.64-.65Z"/>
  <path class="c" d="m40.64,377.79c.22.22.44.43.66.65-.22-.22-.44-.43-.66-.65Z"/>
  <path class="c" d="m39.43,375.97c.22.22.43.44.65.65-.22-.22-.43-.44-.65-.65Z"/>
  <path class="c" d="m38.82,375.36c.22.21.44.43.67.64-.22-.21-.44-.43-.67-.64Z"/>
  <path class="f" d="m440.23,274.9c.15-.21.29-.43.44-.64-.15.21-.29.43-.44.64Z"/>
  <path class="b" d="m362.28,316.28c.21-.2.41-.4.62-.6,0,0-.04-.04-.04-.04-.2.2-.4.41-.61.61,0,0,.03.03.03.03Z"/>
  <path class="b" d="m132.66,162.2s.01-.01.01,0-.01,0-.01,0Z"/>
  <polygon class="b" points="362.25 316.25 362.19 316.37 362.28 316.28 362.25 316.25"/>
  <path class="c" d="m108.27,327.23c.18.17.36.33.54.5-.18-.17-.36-.33-.54-.5Z"/>
  <polygon class="b" points="262.98 121.37 262.86 121.53 263.02 121.41 262.98 121.37"/>
  <path class="c" d="m36.44,363.14c-.18.22-.37.44-.55.65.18-.22.37-.44.55-.65Z"/>
  <path class="i" d="m43.92,161.65c.15.19.3.38.45.57-.15-.19-.3-.38-.45-.57Z"/>
  <path class="f" d="m362.86,362.6c.22-.22.44-.44.66-.66-.22.22-.44.44-.66.66Z"/>
  <path class="b" d="m90.78,266.98c-.25-.22-.51-.44-.76-.66.25.22.51.44.76.66Z"/>
  <path class="f" d="m363.47,362c.23-.21.45-.43.68-.64-.23.21-.45.43-.68.64Z"/>
  <path class="f" d="m12.66,238.34c.08.12.18.24.23.37.02.05-.05.14-.08.21-.11-.18-.16-.37-.16-.58Z"/>
  <path class="c" d="m391.52,287.71c.21-.22.42-.43.64-.65-.21.22-.42.43-.64.65Z"/>
  <path class="c" d="m167.36,399.72c-3.68,6.74-9.47,11.24-16.03,14.83-9.16,5-19.09,7.69-29.34,9.35-.74.12-1.44.52-2.17.78h-9.56c-.03-.31-.06-.62-.09-.94,3.61-.5,7.22-.92,10.81-1.51,11.65-1.92,23.01-4.89,33.01-11.39,4.01-2.6,7.34-6.24,11.01-9.38.74-.63,1.56-1.16,2.35-1.74Z"/>
  <path class="b" d="m60.12,367.83c-.11-.14-.2-.27-.3-.4.19-.08.37-.2.56-.22.06,0,.14.29.21.44-.15.06-.31.12-.47.18Z"/>
  <path class="b" d="m166.79,434.44c-.58.18-1.15.36-1.73.54.58-.18,1.15-.36,1.73-.54Z"/>
  <path class="b" d="m92.65,362.37c.4.2.8.41,1.2.61-.12.15-.24.29-.36.44-.39-.24-.79-.48-1.18-.72.11-.11.23-.22.34-.34Z"/>
  <path class="b" d="m92.31,362.71c-.05-.16-.09-.32-.14-.49.16.05.32.1.47.15-.11.11-.22.23-.34.34Z"/>
  <path class="c" d="m59.58,262.17c-5.14-1.33-10.28-2.66-15.42-3.99-1.17-.3-2.32-.65-3.48-.98-2.03-1.41-4.05-2.83-6.08-4.24l.02-.02c4.88,1.78,9.76,3.54,14.63,5.34,3.45,1.28,6.89,2.6,10.33,3.9Z"/>
  <path class="c" d="m62.02,263.07c-.82-.32-1.65-.63-2.47-.95.82.32,1.65.63,2.47.95Z"/>
  <path class="d" d="m56.51,291.89l1.9.65-1.9-.65Z"/>
  <path class="d" d="m55.33,291.32c.42.2.83.41,1.25.61-.42-.2-.83-.41-1.25-.61Z"/>
  <path class="d" d="m15.04,179.93l-.38-.42c.24.03.47.06.71.09-.11.11-.22.22-.33.33Z"/>
  <polygon class="c" points="34.6 252.95 34.46 252.78 34.62 252.93 34.6 252.95"/>
  <path class="b" d="m42.96,189.17c-.04-.15-.09-.3-.13-.46.15.04.3.09.45.13-.11.11-.21.22-.32.32Z"/>
  <path class="b" d="m266.05,106.16c-.19.02-.39.03-.59.04-.4-.19-.81-.39-1.21-.58.9-5.57,1.77-11.15,2.73-16.7.34-1.96.94-3.88,1.42-5.81-.78,7.69-1.57,15.37-2.35,23.06Z"/>
  <path class="c" d="m266.05,106.16c.78-7.69,1.57-15.37,2.35-23.06.08-.68.15-1.37.23-2.05.05,8.47.32,16.96-2.58,25.11Z"/>
  <path class="c" d="m329.37,78.77c-1.22,0-2.43.02-3.65.03,1.78-.73,3.55-1.45,5.33-2.18.11.28.23.56.34.84-.67.44-1.35.88-2.02,1.31Z"/>
  <path class="d" d="m264.25,105.62c.4.19.81.39,1.21.58-.41.71-.82,1.42-1.24,2.14-.15-.36-.31-.73-.46-1.09.16-.54.32-1.08.48-1.63Z"/>
  <path class="d" d="m245.33,85.46c-.4.61-.81,1.22-1.21,1.83,0,0-.13-.1-.14-.1.46-.57.92-1.14,1.38-1.71l-.02-.02Z"/>
  <path class="c" d="m333.25,77.11c-.16-.02-.32-.05-.48-.07.02-.09.04-.26.06-.26.16,0,.32.03.48.05-.02.09-.04.18-.06.28Z"/>
  <path class="c" d="m334.59,76.3c.05-.07.11-.15.16-.22.12.1.25.2.35.31.01.01-.1.14-.15.21-.12-.1-.24-.2-.36-.31Z"/>
  <path class="d" d="m245.94,84.24c.16-.2.32-.4.48-.6.04.08.09.16.13.24-.22.11-.43.22-.65.34,0,0,.03.02.03.02Z"/>
  <path class="d" d="m245.35,85.48c.2-.41.39-.82.59-1.24,0,0-.03-.02-.03-.02-.2.41-.39.83-.59,1.24,0,0,.02.02.02.02Z"/>
  <polygon class="c" points="291.57 77.58 291.44 77.38 291.64 77.51 291.57 77.58"/>
  <path class="g" d="m290.51,358.32c-10.9,6.28-22.85,9.18-35.17,10.87-3.29.45-6.6.71-9.91,1.06-4.73-.06-9.45-.12-14.18-.18-.36-.02-.72-.04-1.08-.05-17.46-1.12-33.99-5.58-49.29-14.13-9.93-5.55-18.94-12.29-26.1-21.34-5.3-6.7-11.55-12.71-16.39-19.71-7.19-10.41-12.04-21.97-15.09-34.4-2.73-11.1-4.34-22.23-3.94-33.59.34-9.79,1.44-19.59,4.52-28.94,13.57-41.17,42.14-66.03,83.86-76.16,6.18-1.5,12.71-1.64,19.1-2.11,8.44-.61,16.8-.05,25.02,2.33,3.21.93,6.61,1.23,9.92,1.81.8.2,1.6.41,2.4.61.82-.02,1.65-.04,2.47-.05,10.81,1.92,20.72,6.4,30.22,11.57,5.31,2.89,10.23,6.76,14.69,10.88,6.59,6.09,13.08,12.41,18.73,19.34,4.88,5.98,8.41,13.05,12.78,19.47,5.28,7.76,8.7,16.27,10.97,25.31,3.38,13.45,5.07,27.04,3.28,40.9-.28,2.16-.46,4.45-2.97,5.42-.43.22-.85.44-1.28.66,0,0,.02-.03.02-.02-5.92,3.93-5.82,9.33.26,13.98-7.13,25.57-23.2,44.05-45.7,57.33-1.38.82-3.94.95-5.32.22-3.81-2.01-6.76-1.13-9.61,1.55-2.57,1.9-3.16,4.41-2.23,7.37Zm-55.33-80.04s-.1,0-.15,0c0-3.24.25-6.52-.11-9.72-.17-1.47-1.22-3.29-2.44-4.05-.86-.54-2.93.06-4,.81-2.05,1.44-3.88,3.26-5.62,5.09-12.92,13.6-25.91,27.13-38.62,40.92-4.36,4.73-8.15,10.01-11.81,15.31-.88,1.27-.93,4.05-.11,5.37,1.87,3.02,4.13,6.05,6.89,8.24,9.94,7.87,21.65,12.21,33.68,15.59,3.52.99,7.22,2.42,11.26.7,3.8-1.62,7.59-5.47,7.84-9.62.3-4.83.41-9.67.64-14.5.35-7.55.73-15.1,1.09-22.65.5-10.49.98-20.97,1.47-31.46Zm1.27,59.95c.17,0,.33.02.5.03,0,2.44.01,4.87,0,7.31-.07,10.22,8.09,13.44,15.7,12.61,4.1-.45,8.26-1.16,12.18-2.4,7.62-2.4,15.27-4.85,22.56-8.06,6.51-2.87,8.32-8.42,5.7-14.95-1.09-2.71-2.43-5.41-4.13-7.77-10.96-15.23-22.05-30.37-33.12-45.52-3.28-4.49-6.52-9.01-10.02-13.32-1.6-1.97-3.43-1.5-4.45.83-.44,1-.73,2.14-.8,3.23-.29,4.44-.47,8.89-.7,13.33-.41,7.96-.77,15.93-1.27,23.89-.65,10.27-1.43,20.53-2.15,30.8Zm-100.68-55.44c.17,1.05.21,3.22.88,5.18,3.42,10.04,8.48,19.24,14.84,27.72,5.14,6.85,12.96,8.48,19.65,2.38,1.5-1.37,3.03-2.72,4.34-4.26,14.87-17.45,30.9-33.79,47.31-49.78,1.38-1.34,2.05-3.41,3.05-5.14-2.07-.31-4.21-1.12-6.2-.85-9.77,1.32-19.49,2.98-29.24,4.41-9.34,1.37-18.72,2.45-28.03,3.99-6.28,1.04-12.56,2.3-18.65,4.12-5.66,1.69-8.12,5.73-7.94,12.24Zm-5.06-34.04c.25.05.5.09.76.14,0,1.01-.11,2.04.02,3.04,1.05,8.5,3.62,14.08,14.27,13.7,4.09-.15,8.15-1.17,12.21-1.9,11.82-2.14,23.58-4.61,35.45-6.41,8.63-1.31,17.41-1.61,26.09-2.7,1.8-.23,3.41-1.99,5.1-3.04-1.13-1.11-2.24-2.24-3.4-3.32-.28-.26-.74-.33-1.1-.51-9.72-4.78-19.5-9.44-29.14-14.39-6.12-3.14-12.03-6.7-18.02-10.1-5.63-3.19-11.28-6.34-16.85-9.65-8.15-4.85-17.82-1.54-20.14,7.62-2.28,9.04-3.55,18.33-5.26,27.52Zm207.21,51.61c-.17-3.75-1.69-6.57-4.42-8.36-3.02-1.97-6.33-3.62-9.7-4.9-18.48-7.01-37.04-13.81-55.53-20.8-4.93-1.86-9.65-4.26-14.56-6.16-1.21-.47-2.8.08-4.22.16.17,1.33-.09,2.98.6,3.94,3.06,4.27,6.55,8.23,9.61,12.5,11.92,16.65,23.75,33.35,35.57,50.07,5.21,7.36,12.93,9.86,20.55,3.65.71-.58,1.47-1.1,2.13-1.72,6.72-6.26,12.65-13.19,17.18-21.19,1.26-2.22,1.88-4.79,2.8-7.19Zm-161.18-133.47c-1.73.73-5.34,1.4-7.8,3.45-5.62,4.68-11.26,9.56-15.85,15.22-8.8,10.85-6.27,18.49,4.3,24.33,14.6,8.06,29.25,16.04,43.91,24,2.65,1.44,5.49,2.54,8.19,3.9,4.89,2.46,9.7,5.06,14.64,7.41.89.42,2.25-.12,3.39-.21-.18-1-.06-2.2-.58-2.97-8.93-13.05-15.28-27.46-22.36-41.5-4.6-9.12-9.53-18.08-14.56-26.97-2.46-4.34-6.68-6.2-13.28-6.65Zm69.28-1.95c-.23-.03-.45-.05-.68-.08,0-1.62-.03-3.25,0-4.87.11-4.95-2.17-9.41-7.93-9.93-4.77-.44-9.71-.65-14.41.08-7.2,1.12-14.41,2.68-21.33,4.94-5.84,1.91-7.8,5.96-6.68,12.88.56,3.44,2.19,6.77,3.7,9.98,4.38,9.34,8.83,18.66,13.47,27.88,3.66,7.27,7.61,14.38,11.47,21.55,2.11,3.92,4.11,7.94,6.58,11.63.82,1.23,2.92,2.08,4.48,2.14.65.03,1.83-2.37,2.05-3.78,1.66-11.08,3.24-22.18,4.65-33.29,1.65-13.03,3.09-26.08,4.63-39.13Zm100.21,91.86c-.23-5.79-1.37-11.3-3.63-16.58-1.84-4.29-5.24-6.67-9.8-6.06-5.96.8-11.83,2.3-17.73,3.54-19.21,4.05-38.43,8.08-57.63,12.23-1.98.43-5.03-.14-5.39,2.84-.39,3.23,2.89,3.32,4.83,4.1,15.39,6.26,30.83,12.37,46.28,18.48,8.2,3.24,16.69,5.86,24.56,9.75,4.48,2.21,11.96.72,14.17-3.45,1.36-2.57,2.88-5.29,3.27-8.09.76-5.53.77-11.17,1.09-16.76Zm-11.11-37.14c-.33-1.58-.44-3.24-1.01-4.72-3.94-10.2-9.9-19.08-18.15-26.25-4.74-4.12-10.67-3.94-15.63-.05-1.35,1.06-2.62,2.26-3.79,3.51-4.85,5.18-9.63,10.43-14.49,15.6-8.09,8.63-16.27,17.18-24.31,25.86-2.82,3.04-5.44,6.29-7.93,9.62-.53.72-.47,2.43.04,3.2.41.62,1.99.87,2.93.68,16.95-3.51,33.92-6.96,50.81-10.76,7.85-1.77,15.61-4.01,23.28-6.47,5.69-1.83,8-5.22,8.26-10.21Zm-36.18-42.08c.02-3.51-1.54-7.3-3.92-9.14-7.65-5.93-16.11-10.34-25.37-13.13-10.92-3.28-17.58.77-19.31,11.88-.92,5.93-1.26,11.95-1.99,17.91-1.38,11.33-2.76,22.65-4.32,33.95-.74,5.36-2.04,10.65-2.79,16.01-.28,2.03-1.18,4.63,1.37,6.04,2.35,1.3,3.73-.45,5.09-2.02,3.88-4.49,7.65-9.07,11.68-13.42,11.42-12.33,22.98-24.52,34.39-36.84,2.9-3.13,5.59-6.51,5.17-11.24Z"/>
  <path class="h" d="m230.17,370.02c.36.02.72.04,1.08.05-.36-.02-.72-.04-1.08-.05Z"/>
  <path class="g" d="m321.95,172.64c29.94,26.41,40.77,60.2,37.34,99.28,0-1.29,0-2.58,0-3.88,0-1.32,0-2.64,0-3.96.11-14.29-1.18-28.49-6.21-41.88-3.11-8.27-7.57-16.12-12.15-23.72-5.52-9.16-11.03-18.43-18.99-25.84Z"/>
  <path class="g" d="m324.54,340.06c.6-.77,1.09-1.65,1.81-2.28,12.6-11.05,21.68-24.47,27.19-40.3.59-1.7.79-3.54,1.17-5.31.34.02.69.04,1.04.06-.97,3.76-1.47,7.73-3,11.26-6.08,14.07-15.08,26.04-26.94,35.8-.38.31-.87.49-1.31.73,0,0,.03.04.03.04Z"/>
  <path class="i" d="m290.51,358.32c-.93-2.96-.34-5.47,2.23-7.37.17.64.6,1.34.47,1.92-.96,4.12.08,5.28,4.73,4.79-.47-1.04-1.23-2-1.26-2.99-.04-1.06.32-2.48,1.05-3.11.61-.53,2.33-.58,2.97-.08.88.68,1.92,2.8,1.66,3.06-1.91,1.91-3.97,3.79-6.3,5.11-1.89,1.07-4.14.97-5.55-1.32Z"/>
  <path class="i" d="m355.75,292.23c-.35-.02-.69-.04-1.04-.06-.45-.11-.89-.21-1.34-.32-6.08-4.65-6.18-10.05-.26-13.98-.04.4,0,.83-.15,1.19-2.8,7.13-2.42,8.26,4.06,11.92.13.08.17.32.34.65-.56.2-1.09.4-1.62.59Z"/>
  <path class="i" d="m361.86,283.47c-.77,2.64-.98,4.9-3.78,4.78-2.03-.09-2.01-1.67-1.91-3.11.14-1.95.71-3.81,3.16-3.44.98.15,1.81,1.25,2.53,1.78Z"/>
  <path class="g" d="m317.77,344.87c-1.41,1.02-2.82,2.04-4.24,3.05l.04.04c1.41-1.02,2.82-2.04,4.23-3.05,0,0-.03-.04-.03-.04Z"/>
  <path class="g" d="m320.84,343.07c-1.02.6-2.05,1.2-3.07,1.8,0,0,.03.04.03.04,1.02-.6,2.05-1.2,3.07-1.8,0,0-.04-.04-.04-.04Z"/>
  <path class="i" d="m266.65,144.35c-.82.02-1.65.04-2.47.05.79-1.44,1.61-1.5,2.47-.05Z"/>
  <path class="g" d="m322.64,341.22c-.6.62-1.2,1.23-1.81,1.85,0,0,.04.04.04.04.6-.62,1.2-1.23,1.8-1.85l-.03-.04Z"/>
  <path class="g" d="m313.53,347.93c-.6.41-1.21.82-1.81,1.23l.03.03c.61-.41,1.21-.82,1.82-1.23,0,0-.04-.04-.04-.04Z"/>
  <path class="g" d="m322.68,341.26c.62-.4,1.24-.8,1.86-1.2,0,0-.03-.04-.03-.04-.62.4-1.24.8-1.86,1.2,0,0,.03.04.03.04Z"/>
  <path class="g" d="m311.72,349.16c-.41.2-.82.4-1.23.6v.02c.43-.19.84-.39,1.26-.58,0,0-.03-.03-.03-.03Z"/>
  <path class="i" d="m353.09,277.9c.43-.22.85-.44,1.28-.66-.43.22-.85.44-1.28.66Z"/>
  <path class="g" d="m314.15,165.88c.4.19.8.39,1.21.58l.03-.03c-.41-.19-.81-.38-1.22-.57l-.02.02Z"/>
  <path class="g" d="m319.62,170.76c.18.04.36.08.54.12-.17-.05-.34-.1-.51-.16l-.03.03Z"/>
  <path class="g" d="m319.65,170.73c-.2-.2-.41-.41-.61-.61,0,0-.03.03-.03.03.2.2.41.41.61.61,0,0,.03-.03.03-.03Z"/>
  <path class="g" d="m319.04,170.11c-.2-.2-.41-.41-.61-.61,0,0-.03.03-.03.03.2.2.41.41.61.61,0,0,.03-.03.03-.03Z"/>
  <path class="g" d="m317.79,168.93c.2.2.41.41.61.61,0,0,.03-.03.03-.03-.2-.2-.41-.41-.61-.61,0,0-.03.03-.03.03Z"/>
  <path class="g" d="m317.19,168.31c.2.2.4.41.6.61,0,0,.03-.03.03-.03-.2-.2-.4-.41-.6-.61l-.03.03Z"/>
  <path class="g" d="m317.22,168.28c-.2-.2-.4-.41-.6-.61,0,0-.03.03-.03.03.2.2.4.41.6.61,0,0,.03-.03.03-.03Z"/>
  <path class="g" d="m315.98,167.09c.2.2.4.41.6.61,0,0,.03-.03.03-.03-.2-.2-.4-.41-.6-.61,0,0-.03.03-.03.03Z"/>
  <path class="g" d="m315.35,166.46c.21.21.42.42.63.63,0,0,.03-.03.03-.03-.21-.21-.42-.42-.63-.63,0,0-.03.03-.03.03Z"/>
  <path class="g" d="m314.17,165.86s-.02.02-.02.02c0,0,.02-.02.02-.02Z"/>
  <path class="g" d="m310.49,349.75s.01.02.01.02-.01-.02-.01-.02Z"/>
  <path class="c" d="m177.7,71.2c-1.24-3.25-3.13-6.41-3.58-9.76-.84-6.33-.85-12.77-1.21-19.16.34,3.06.52,6.15,1.07,9.18,1.08,6,2.37,11.97,3.55,17.95.12.59.12,1.2.17,1.79Z"/>
  <path class="e" d="m206.39,44.69c.05-.21.1-.43.03-.12.19-.25.06-.08-.07.09l.04.04Z"/>
  <path class="e" d="m206.36,44.65c-.03.08-.05.17-.11.24-.03.04-.11.03-.17.04.1-.08.21-.16.31-.24,0,0-.04-.04-.04-.04Z"/>
  <path class="e" d="m298.91,403.99c2.53-1.77,2.46-.05,2.34,1.74-1.75,5.17-.69,10.2,1.12,15.03,1.37,3.65,3.38,7.07,5.11,10.59,0,0,.04-.03.04-.03-.61-.46-1.38-.8-1.8-1.4-5.53-7.78-9.6-15.96-6.8-25.93Z"/>
  <path class="e" d="m308.05,432.6c-.18-.43-.35-.85-.53-1.28,0,0-.04.03-.04.03.18.43.36.86.53,1.29l.04-.04Z"/>
  <path class="e" d="m334.24,428.96c.15.03.29.07.44.1-.14-.04-.29-.08-.43-.11,0,0-.01.01-.01.01Z"/>
  <path class="e" d="m336.13,430.1c-.11-.05-.23-.1-.34-.15.05,0,.12-.02.15,0,.06.05.1.12.15.19l.04-.04Z"/>
  <path class="e" d="m336.09,430.14c.07.05.15.09.21.16.03.03,0,.11,0,.16-.06-.12-.11-.24-.17-.36,0,0-.04.04-.04.04Z"/>
  <path class="e" d="m308.01,432.64l.32.18c-.05,0-.12,0-.15-.02-.06-.06-.09-.13-.13-.2,0,0-.04.04-.04.04Z"/>
  <path class="d" d="m76.23,378.94c-.07.07-.15.13-.22.2-.04-.04-.12-.11-.11-.13.05-.08.13-.15.19-.23,0,0,.14.15.14.15Z"/>
  <path class="d" d="m89.33,90.97c.43,1.42.85,2.84,1.28,4.26-.43-1.42-.85-2.84-1.28-4.26Z"/>
  <path class="d" d="m88.8,87.89c.19,1.04.38,2.09.57,3.13-.19-1.04-.38-2.09-.57-3.13Z"/>
  <path class="h" d="m76.44,99.73c-.52-.29-1.04-.58-1.55-.88.52.29,1.04.58,1.55.88Z"/>
  <path class="d" d="m92.96,100.72c.24.38.47.77.71,1.15-.24-.38-.47-.77-.71-1.15Z"/>
  <path class="d" d="m90.61,95.23c.2.43.41.86.61,1.29-.2-.43-.41-.86-.61-1.29Z"/>
  <path class="d" d="m93.7,101.94c.16.25.32.5.49.74-.16-.25-.32-.5-.49-.74Z"/>
  <path class="d" d="m436.29,273.64c-.11.21-.22.42-.33.63-.42,0-.84,0-1.26,0,.53-.21,1.06-.42,1.59-.63Z"/>
  <path class="g" d="m158.78,70.71c-.2.93-.57,1.87-.58,2.81-.04,5.42.13,10.84-.03,16.25-.07,2.23-.77,4.44-1.19,6.65.04-2.26.11-4.53.11-6.79,0-7.3-.04-14.6-.06-21.9,0-.96,0-1.92.7-2.94.35,1.98.69,3.95,1.04,5.93Z"/>
  <path class="i" d="m143.57,85.45c.43-.77.87-1.54,1.3-2.3-.43.77-.87,1.54-1.3,2.3Z"/>
  <path class="c" d="m399.39,278.5l4.26-3.06.04.04c-1.04,1.02-2.07,2.05-3.11,3.07-.32.07-.64.14-.96.21-.08-.09-.15-.18-.23-.26Z"/>
  <path class="d" d="m399.63,278.76c.32-.07.64-.14.96-.21-.81.8-1.62,1.6-2.44,2.41.49-.73.98-1.47,1.47-2.2Z"/>
  <path class="c" d="m403.65,275.44c.19-.42.38-.84.57-1.26.35.3.7.61,1.05.91-.52.13-1.05.26-1.57.39,0,0-.04-.04-.04-.04Z"/>
  <path class="d" d="m397.58,282.51c.21-.53.41-1.07.62-1.6-.21.53-.41,1.07-.62,1.6Z"/>
  <path class="b" d="m119.17,162.85c.68-.41,1.37-.83,2.05-1.24.2.31.41.63.61.94-2.68,1.7-5.37,3.4-8.05,5.1,1.8-1.6,3.59-3.2,5.39-4.79Z"/>
  <path class="b" d="m113.75,167.67c-.8.6-1.6,1.2-2.4,1.8.43-.56.87-1.11,1.3-1.67.37-.04.73-.09,1.1-.13Z"/>
  <polygon class="i" points="51.25 92.23 51.37 92.03 51.46 92.25 51.25 92.23"/>
  <path class="h" d="m69.86,162.01c-1,.24-2.01.48-3.01.72,1-.24,2.01-.48,3.01-.72Z"/>
  <path class="h" d="m113.83,89.7c1.24,3.62,2.47,7.24,3.71,10.86-.3.12-.6.24-.9.36-.34-.48-.67-.95-1.01-1.43,0,0-.03-.06-.03-.06-.6-2.42-1.2-4.83-1.8-7.25,0,0-.02-.06-.02-.06,0-.8-.02-1.59-.03-2.39l.08-.05Z"/>
  <path class="i" d="m113.8,92.19c.6,2.42,1.2,4.83,1.8,7.25-.6-2.42-1.2-4.83-1.8-7.25Z"/>
  <path class="i" d="m113.75,89.75c0,.8.02,1.59.03,2.39-.43-.96-.85-1.91-1.28-2.87.15-.07.29-.15.44-.22.27.24.55.47.82.71Z"/>
  <path class="i" d="m118.54,111.49c-.11.14-.22.28-.34.42-.1-.12-.29-.27-.27-.37.03-.16.21-.3.32-.45.09.13.19.26.28.39Z"/>
  <path class="g" d="m372.82,374.46c.4-.32.8-.65,1.2-.97-.4.32-.8.65-1.2.97Z"/>
  <path class="d" d="m371.28,394.64c.06.39.12.78.17,1.17-1.05,0-2.1,0-3.14,0-.04-.23-.08-.47-.12-.7,1.03-.16,2.06-.31,3.09-.47Z"/>
  <path class="i" d="m354.91,410.32c-.04.09-.08.23-.1.22-.16-.03-.32-.08-.48-.13.03-.07.07-.21.1-.21.16.02.32.07.49.11Z"/>
  <path class="b" d="m314.79,400.36c-.04.06-.08.12-.12.18.02-.08.05-.15.07-.23,0,0,.05.05.05.05Z"/>
  <path class="b" d="m111.31,169.51c-.33.14-.65.27-.98.41.33-.14.65-.27.98-.41Z"/>
  <path class="i" d="m357.99,381.45c-1.21.4-2.41.8-3.62,1.2,1.21-.4,2.41-.8,3.62-1.2Z"/>
  <path class="i" d="m353.71,382.66c0-.9.01-1.8.02-2.7,0,.9-.01,1.8-.02,2.7Z"/>
  <path class="i" d="m353.7,383.51c0-.27.01-.55.02-.82.2-.05.4-.05.6-.02-.21.28-.42.56-.62.83Z"/>
  <polygon class="b" points="122.94 160.98 122.78 161.1 122.91 160.96 122.94 160.98"/>
  <polygon class="b" points="122.91 160.96 123.04 160.85 122.94 160.98 122.91 160.96"/>
  <path class="i" d="m235.17,278.28c-.49,10.49-.98,20.97-1.47,31.46-.36,7.55-.74,15.1-1.09,22.65-.22,4.83-.34,9.67-.64,14.5-.26,4.15-4.04,8-7.84,9.62-4.05,1.73-7.75.29-11.26-.7-12.03-3.38-23.75-7.72-33.68-15.59-2.76-2.19-5.02-5.21-6.89-8.24-.81-1.32-.77-4.1.11-5.37,3.66-5.3,7.46-10.58,11.81-15.31,12.71-13.79,25.7-27.32,38.62-40.92,1.74-1.83,3.57-3.64,5.62-5.09,1.07-.75,3.14-1.35,4-.81,1.22.76,2.28,2.58,2.44,4.05.36,3.2.11,6.48.11,9.72.05,0,.1,0,.15,0Zm-45.34,53.33c-.33,3.23,1.43,6.43,5,8.1,3.8,1.78,7.87,3.14,11.95,4.15,6.56,1.63,13.42-2.2,15.4-8.67,1.36-4.43,2.31-9.02,3.01-13.6,2.41-15.78,4.65-31.58,6.85-47.4.18-1.29-.03-3.44-.8-3.88-1.59-.9-3.44-.46-4.74,1.37-9.96,14.02-20.13,27.89-29.91,42.04-3.48,5.04-6.66,10.47-6.77,17.89Z"/>
  <path class="i" d="m236.44,338.24c.72-10.26,1.5-20.53,2.15-30.8.5-7.96.86-15.92,1.27-23.89.23-4.45.41-8.89.7-13.33.07-1.09.36-2.23.8-3.23,1.03-2.33,2.85-2.8,4.45-.83,3.5,4.31,6.74,8.83,10.02,13.32,11.07,15.15,22.15,30.29,33.12,45.52,1.7,2.36,3.04,5.06,4.13,7.77,2.62,6.53.81,12.08-5.7,14.95-7.29,3.21-14.95,5.66-22.56,8.06-3.93,1.24-8.08,1.95-12.18,2.4-7.61.83-15.77-2.39-15.7-12.61.02-2.44,0-4.87,0-7.31-.17,0-.33-.02-.5-.03Zm7.04-51.58c.21,0,.42,0,.63,0,0,8.2-.33,16.42.1,24.59.4,7.55,1.27,15.11,2.56,22.56,1.33,7.72,7.57,12.29,14.63,10.9,3.6-.71,7.25-2.11,10.41-3.98,7.18-4.25,8.79-8.3,5.74-16.02-2.55-6.46-5.88-12.66-9.38-18.67-6.52-11.2-13.38-22.2-20.21-33.21-.57-.92-1.98-1.31-3-1.95-.49,1.1-1.36,2.19-1.41,3.31-.17,4.15-.07,8.31-.07,12.47Z"/>
  <path class="i" d="m135.76,282.8c-.18-6.51,2.28-10.55,7.94-12.24,6.09-1.82,12.37-3.08,18.65-4.12,9.31-1.54,18.69-2.61,28.03-3.99,9.75-1.44,19.48-3.09,29.24-4.41,1.99-.27,4.13.54,6.2.85-1,1.73-1.67,3.8-3.05,5.14-16.41,15.99-32.43,32.33-47.31,49.78-1.31,1.54-2.84,2.89-4.34,4.26-6.69,6.11-14.52,4.48-19.65-2.38-6.36-8.48-11.42-17.67-14.84-27.72-.67-1.96-.71-4.13-.88-5.18Zm22.42,20.87c1.48-.24,2.45-.22,3.26-.57,5.46-2.34,11.35-4.07,16.24-7.31,9.6-6.37,18.71-13.49,27.85-20.52,3.51-2.7,6.66-5.92,9.74-9.13.78-.82,1.26-2.79.8-3.69-.45-.88-2.23-1.2-3.49-1.51-.61-.15-1.37.26-2.06.42-11.03,2.51-22.06,4.99-33.08,7.53-8.07,1.86-16.11,3.65-23.28,8.28-8.2,5.3-8.72,19.41-.55,24.76,1.46.96,3.34,1.29,4.59,1.74Z"/>
  <path class="i" d="m130.7,248.75c1.71-9.18,2.98-18.48,5.26-27.52,2.31-9.17,11.99-12.47,20.14-7.62,5.56,3.31,11.22,6.45,16.85,9.65,5.99,3.4,11.9,6.96,18.02,10.1,9.63,4.95,19.42,9.61,29.14,14.39.36.18.82.25,1.1.51,1.16,1.08,2.27,2.21,3.4,3.32-1.7,1.05-3.3,2.81-5.1,3.04-8.67,1.1-17.45,1.39-26.09,2.7-11.87,1.8-23.64,4.27-35.45,6.41-4.06.73-8.12,1.76-12.21,1.9-10.65.38-13.22-5.2-14.27-13.7-.12-1-.02-2.03-.02-3.04-.25-.05-.5-.09-.76-.14Zm43.59,6c5.38-.28,14.69-.68,23.98-1.31,4.33-.3,8.63-.98,12.91-1.69.83-.14,1.95-1.05,2.14-1.8.15-.6-.8-1.64-1.48-2.23-.83-.71-1.86-1.24-2.87-1.69-12.57-5.64-25.07-11.43-37.75-16.8-5.29-2.24-10.87-3.94-16.47-5.23-7.58-1.75-12.63,1.23-14.8,8.69-.99,3.41-1.04,7.14-1.14,10.74-.13,4.47,1.74,6.88,6.05,8.36,8.28,2.84,16.89,3.02,29.44,2.96Z"/>
  <path class="i" d="m337.92,300.37c-.92,2.41-1.54,4.98-2.8,7.19-4.54,8.01-10.47,14.93-17.18,21.19-.67.62-1.42,1.14-2.13,1.72-7.62,6.21-15.34,3.71-20.55-3.65-11.83-16.71-23.66-33.42-35.57-50.07-3.06-4.27-6.54-8.23-9.61-12.5-.69-.96-.42-2.61-.6-3.94,1.42-.08,3.01-.63,4.22-.16,4.92,1.9,9.64,4.3,14.56,6.16,18.49,6.99,37.05,13.79,55.53,20.8,3.38,1.28,6.69,2.93,9.7,4.9,2.73,1.79,4.25,4.61,4.42,8.36Zm-10.58,4.83c-.9-1.6-1.51-3.71-2.9-4.96-2.99-2.69-6.11-5.47-9.66-7.27-16.98-8.65-34.1-17.01-51.22-25.38-1.02-.5-2.85-.6-3.66,0-1.49,1.09-1.26,2.87-.09,4.32,2.79,3.46,5.56,6.93,8.45,10.31,2.89,3.38,6.15,6.47,8.85,9.99,7.51,9.83,15,19.62,24.49,27.71,5.29,4.51,9.07,5.12,13.87,1.82,4.36-3,7.59-6.98,10.16-11.52.77-1.37,1.05-3.02,1.71-5.01Z"/>
  <path class="i" d="m176.73,166.9c6.61.44,10.83,2.31,13.28,6.65,5.03,8.89,9.96,17.85,14.56,26.97,7.08,14.04,13.43,28.45,22.36,41.5.52.76.4,1.97.58,2.97-1.14.1-2.5.64-3.39.21-4.94-2.34-9.76-4.95-14.64-7.41-2.7-1.36-5.53-2.46-8.19-3.9-14.66-7.96-29.31-15.94-43.91-24-10.57-5.84-13.1-13.48-4.3-24.33,4.58-5.65,10.23-10.54,15.85-15.22,2.46-2.05,6.07-2.72,7.8-3.45Zm-18.06,26.51c.55,5.73,2.84,9.01,6.17,11.26,10.67,7.18,21.5,14.12,32.29,21.13,4.57,2.97,9.14,5.93,13.77,8.79,1.88,1.16,4.02,2.56,6.09.58,2.11-2,.1-3.68-.87-5.35-4.36-7.52-8.73-15.03-13.12-22.53-4.76-8.13-9.35-16.37-14.39-24.33-3.91-6.16-9.72-8.46-15.19-6.57-4.6,1.58-7.94,4.93-10.54,8.84-1.91,2.88-3.2,6.16-4.22,8.18Z"/>
  <path class="i" d="m246.01,164.95c-1.53,13.04-2.98,26.1-4.63,39.13-1.41,11.12-2.99,22.21-4.65,33.29-.21,1.4-1.39,3.8-2.05,3.78-1.56-.06-3.66-.91-4.48-2.14-2.47-3.69-4.47-7.7-6.58-11.63-3.86-7.16-7.81-14.28-11.47-21.55-4.64-9.22-9.09-18.53-13.47-27.88-1.51-3.21-3.14-6.54-3.7-9.98-1.12-6.92.84-10.98,6.68-12.88,6.92-2.26,14.13-3.81,21.33-4.94,4.7-.73,9.64-.52,14.41-.08,5.76.53,8.04,4.98,7.93,9.93-.04,1.62,0,3.24,0,4.87.23.03.45.05.68.08Zm-41.57,5.2c.11,1.31.08,2.65.36,3.92,1.97,8.98,5.58,17.32,9.9,25.4,3.11,5.8,5.89,11.78,8.84,17.66,1.95,3.89,3.78,7.84,5.99,11.57.55.93,2.42,1.61,3.57,1.46.74-.09,1.69-1.85,1.81-2.94.75-6.73,1.35-13.47,1.87-20.22.36-4.74.52-9.49.76-14.24.36-7.04.93-14.07,1-21.11.07-6.83-5.84-15.31-12.89-15.82-2.77-.2-5.66.09-8.39.67-8.88,1.88-12.76,6.16-12.85,13.64Z"/>
  <path class="i" d="m346.22,256.81c-.32,5.59-.34,11.23-1.09,16.76-.38,2.8-1.91,5.52-3.27,8.09-2.2,4.16-9.68,5.66-14.17,3.45-7.87-3.89-16.36-6.51-24.56-9.75-15.45-6.1-30.89-12.22-46.28-18.48-1.93-.79-5.21-.87-4.83-4.1.36-2.97,3.41-2.41,5.39-2.84,19.19-4.15,38.41-8.18,57.63-12.23,5.9-1.24,11.77-2.74,17.73-3.54,4.56-.61,7.97,1.77,9.8,6.06,2.26,5.28,3.41,10.8,3.63,16.58Zm-22.36-14.77c-1.49,0-2.84-.17-4.12.03-10.59,1.65-21.19,3.28-31.75,5.1-6.88,1.19-13.71,2.63-20.53,4.1-.92.2-2.21,1.17-2.32,1.93-.1.76.97,1.78,1.7,2.52.47.48,1.23.67,1.86,1,11.32,5.91,23.64,9,35.76,12.68,8.13,2.47,16.09,5.38,24.78,5.68,7.19.25,10.81-2.12,10.96-9.21.14-6.22-1.09-12.29-4.62-17.67-2.83-4.31-6.45-6.99-11.72-6.17Z"/>
  <path class="i" d="m335.11,219.67c-.25,4.99-2.57,8.38-8.26,10.21-7.66,2.46-15.43,4.71-23.28,6.47-16.89,3.8-33.86,7.25-50.81,10.76-.94.19-2.52-.06-2.93-.68-.51-.77-.58-2.49-.04-3.2,2.48-3.33,5.11-6.57,7.93-9.62,8.04-8.68,16.22-17.23,24.31-25.86,4.85-5.18,9.63-10.42,14.49-15.6,1.18-1.25,2.44-2.45,3.79-3.51,4.96-3.89,10.9-4.07,15.63.05,8.25,7.17,14.21,16.05,18.15,26.25.57,1.48.69,3.14,1.01,4.72Zm-71.98,20.76c1.64-.38,2.72-.6,3.79-.89,8.69-2.35,17.31-5.09,26.1-6.96,7.84-1.66,15.43-3.79,22.74-7.05,6.56-2.93,10.87-8.17,7.32-15.97-1.87-4.11-4.05-8.2-6.76-11.78-3.93-5.18-9.12-5.79-14.48-2.14-3,2.04-6.04,4.18-8.53,6.79-10.55,11.04-20.92,22.26-31.32,33.44-.69.74-1.72,2.15-1.46,2.58.55.94,1.84,1.46,2.6,1.99Z"/>
  <path class="i" d="m298.93,177.59c.43,4.73-2.27,8.12-5.16,11.24-11.41,12.33-22.98,24.52-34.39,36.84-4.03,4.35-7.8,8.94-11.68,13.42-1.36,1.57-2.73,3.33-5.09,2.02-2.55-1.41-1.65-4.01-1.37-6.04.74-5.36,2.05-10.65,2.79-16.01,1.56-11.3,2.94-22.63,4.32-33.95.73-5.96,1.06-11.98,1.99-17.91,1.73-11.11,8.39-15.16,19.31-11.88,9.26,2.78,17.72,7.2,25.37,13.13,2.37,1.84,3.94,5.63,3.91,9.13Zm-52.05,49.13c.09.02.18.04.27.05,0,.41-.13.87.02,1.21.56,1.29.94,2.88,1.94,3.67.5.4,2.55-.36,3.26-1.16,2.72-3.07,5.14-6.41,7.74-9.58,6.87-8.37,13.81-16.69,20.67-25.08,3.68-4.49,7.05-9.2,8.53-14.95,1-3.89.82-7.69-1.85-10.95-3.45-4.22-8.07-6.76-13.13-8.49-5.24-1.79-8.47-.67-11.4,4.03-1.43,2.29-2.68,4.84-3.35,7.45-3.45,13.55-6.72,27.15-9.97,40.75-1.03,4.32-1.83,8.7-2.73,13.05Z"/>
  <path class="h" d="m189.83,331.61c.12-7.41,3.29-12.85,6.77-17.89,9.78-14.14,19.94-28.02,29.91-42.04,1.3-1.83,3.14-2.27,4.74-1.37.77.44.98,2.59.8,3.88-2.2,15.81-4.44,31.62-6.85,47.4-.7,4.58-1.65,9.17-3.01,13.6-1.98,6.46-8.84,10.3-15.4,8.67-4.08-1.02-8.15-2.37-11.95-4.15-3.57-1.67-5.33-4.87-5-8.1Zm30.74-36.9c-.21-.07-.41-.14-.62-.21-1.54,3.7-3.08,7.4-4.61,11.11-2.59,6.23-5.23,12.44-7.71,18.71-.27.67.37,1.7.58,2.56.75-.65,2.04-1.21,2.17-1.97,1.58-9.04,5.71-17.19,8.84-25.69.54-1.47.9-3.01,1.35-4.52Z"/>
  <path class="h" d="m243.48,286.66c0-4.16-.1-8.32.07-12.47.05-1.12.92-2.21,1.41-3.31,1.02.64,2.43,1.03,3,1.95,6.83,11.01,13.69,22.01,20.21,33.21,3.5,6.01,6.83,12.22,9.38,18.67,3.05,7.72,1.44,11.77-5.74,16.02-3.16,1.87-6.81,3.26-10.41,3.98-7.06,1.4-13.3-3.18-14.63-10.9-1.29-7.45-2.16-15.01-2.56-22.56-.43-8.18-.1-16.39-.1-24.59-.21,0-.42,0-.63,0Zm12.83,26.31c-.53.17-1.05.34-1.58.51,1.28,4.27,2.53,8.55,3.89,12.79.11.36.95.48,1.45.71.19-.52.68-1.14.54-1.55-1.37-4.17-2.85-8.32-4.3-12.47Z"/>
  <path class="h" d="m158.18,303.67c-1.25-.46-3.12-.78-4.59-1.74-8.16-5.35-7.64-19.46.55-24.76,7.17-4.63,15.21-6.42,23.28-8.28,11.02-2.54,22.06-5.02,33.08-7.53.69-.16,1.44-.57,2.06-.42,1.26.32,3.04.63,3.49,1.51.46.9-.02,2.88-.8,3.69-3.08,3.21-6.22,6.42-9.74,9.13-9.14,7.03-18.25,14.15-27.85,20.52-4.88,3.24-10.77,4.96-16.24,7.31-.81.35-1.78.32-3.26.57Zm38.41-28.81c-2.02.62-4.05,1.23-6.08,1.85-.82-.16-1.77-.66-2.44-.42-4.86,1.76-9.68,3.65-14.49,5.54-.76.3-1.43.82-2.15,1.24.07.11.13.23.2.34,1.83-.22,3.67-.43,5.5-.65-1.36,1.03-2.73,2.06-4.09,3.09,4.48-1.42,8.76-3.21,12.9-5.25,3.61-1.78,7.08-3.84,10.61-5.78.09-.02.19-.04.28-.07-.09.03-.17.06-.26.09Z"/>
  <path class="h" d="m174.29,254.76c-12.55.06-21.16-.12-29.44-2.96-4.31-1.48-6.17-3.89-6.05-8.36.1-3.6.15-7.33,1.14-10.74,2.17-7.46,7.22-10.44,14.8-8.69,5.6,1.29,11.18,2.99,16.47,5.23,12.68,5.37,25.19,11.15,37.75,16.8,1.01.45,2.04.98,2.87,1.69.68.59,1.63,1.63,1.48,2.23-.19.75-1.31,1.66-2.14,1.8-4.28.7-8.59,1.39-12.91,1.69-9.29.64-18.59,1.03-23.98,1.31Zm11.69-8.03c-7.86-1.9-15.7-3.86-23.58-5.65-1.18-.27-2.54.31-4.31.57,2.86,2.76,16.81,5.31,27.89,5.08Z"/>
  <path class="h" d="m327.34,305.19c-.66,1.98-.94,3.63-1.71,5.01-2.56,4.54-5.8,8.53-10.16,11.52-4.8,3.3-8.59,2.69-13.87-1.82-9.49-8.09-16.98-17.89-24.49-27.71-2.69-3.52-5.95-6.61-8.85-9.99-2.89-3.37-5.65-6.85-8.45-10.31-1.17-1.45-1.4-3.23.09-4.32.81-.59,2.64-.49,3.66,0,17.12,8.36,34.25,16.73,51.22,25.38,3.55,1.81,6.67,4.58,9.66,7.27,1.39,1.25,2,3.36,2.9,4.96Zm-20.39.31c-.03-2.8-14.13-12.65-18.75-13.52,6.1,4.48,11.81,9.52,18.75,13.52Z"/>
  <path class="h" d="m158.68,193.41c1.02-2.01,2.31-5.3,4.22-8.18,2.6-3.92,5.94-7.26,10.54-8.84,5.48-1.89,11.28.41,15.19,6.57,5.04,7.95,9.63,16.2,14.39,24.33,4.39,7.5,8.76,15.01,13.12,22.53.97,1.67,2.97,3.35.87,5.35-2.08,1.97-4.22.58-6.09-.58-4.63-2.86-9.21-5.82-13.77-8.79-10.79-7.01-21.62-13.95-32.29-21.13-3.34-2.24-5.62-5.53-6.17-11.26Zm21.68.41c-4.28.07-6.16,1.94-6.3,5.31-.2,4.77,2.56,8.19,5.98,10.63,4.23,3.03,9.02,5.28,13.67,7.69,1.01.52,2.42.29,3.65.4.12-1.36.66-2.86.26-4.05-.76-2.26-2.26-4.26-3.09-6.51-1.96-5.28-5.75-8.95-10.27-11.94-1.38-.91-3.14-1.24-3.89-1.52Zm26.17,34.03c.39-.25.78-.49,1.16-.74-1.19-1.44-2.39-2.88-3.58-4.31-.35.28-.69.56-1.04.84,1.15,1.41,2.3,2.81,3.45,4.22Z"/>
  <path class="h" d="m204.44,170.15c.08-7.48,3.97-11.76,12.85-13.64,2.73-.58,5.62-.87,8.39-.67,7.05.51,12.97,8.99,12.89,15.82-.08,7.04-.64,14.08-1,21.11-.24,4.75-.4,9.5-.76,14.24-.52,6.75-1.12,13.49-1.87,20.22-.12,1.09-1.07,2.85-1.81,2.94-1.15.14-3.02-.53-3.57-1.46-2.21-3.73-4.05-7.69-5.99-11.57-2.95-5.89-5.74-11.86-8.84-17.66-4.33-8.08-7.94-16.42-9.9-25.4-.28-1.27-.25-2.61-.36-3.92Zm21.32,34.86c3.61-8.15,4.72-16.11,3.22-24.33-.75-4.09-2.98-6.1-5.5-5.84-2.37.24-5.2,3.7-5.58,6.83-.04.3-.02.61-.02.91.1,7.45,2.39,14.25,6.15,20.6.29.49.8.86,1.72,1.83Zm4.31,17.59c.48-.16.95-.31,1.43-.47-1.64-3.93-3.28-7.86-4.91-11.79-.46.18-.93.36-1.39.55,1.63,3.9,3.25,7.81,4.88,11.71Z"/>
  <path class="h" d="m323.87,242.04c5.28-.81,8.89,1.87,11.72,6.17,3.54,5.38,4.76,11.45,4.62,17.67-.15,7.1-3.77,9.47-10.96,9.21-8.69-.31-16.66-3.21-24.78-5.68-12.11-3.68-24.43-6.78-35.76-12.68-.63-.33-1.4-.52-1.86-1-.72-.75-1.8-1.76-1.7-2.52.1-.76,1.4-1.73,2.32-1.93,6.82-1.47,13.66-2.92,20.53-4.1,10.56-1.82,21.16-3.45,31.75-5.1,1.29-.2,2.63-.03,4.12-.03Zm-22.37,23.07c2.39-.76,4.14-1.18,5.79-1.86,2.52-1.03,3.16-3.38,2.47-5.55-.44-1.39-2.24-3.28-3.46-3.31-3.13-.06-6.42.41-9.38,1.42-2.69.92-3.23,3.96-1.16,5.9,1.64,1.54,3.95,2.37,5.75,3.39Z"/>
  <path class="h" d="m263.13,240.44c-.76-.53-2.04-1.05-2.6-1.99-.26-.44.77-1.84,1.46-2.58,10.4-11.19,20.76-22.4,31.32-33.44,2.49-2.6,5.53-4.75,8.53-6.79,5.35-3.65,10.55-3.05,14.48,2.14,2.72,3.58,4.89,7.67,6.76,11.78,3.55,7.8-.76,13.04-7.32,15.97-7.31,3.26-14.9,5.39-22.74,7.05-8.8,1.87-17.41,4.61-26.1,6.96-1.07.29-2.16.51-3.79.89Zm12.65-10.65c.41-.2.83-.4,1.24-.59,7.96-4.58,15.91-9.17,23.87-13.75-.18-.32-.36-.64-.54-.96-.5.2-1.04.34-1.5.62-5.75,3.57-11.51,7.13-17.23,10.76-1.6,1.01-3.05,2.25-4.57,3.38-.42.19-.84.38-1.26.57h-.01Zm29.84-13.41c-.22-.39-.43-.77-.65-1.16-10.28,5.96-20.55,11.92-30.83,17.88,11.4-3.94,21.56-10.1,31.47-16.72Z"/>
  <path class="h" d="m246.88,226.72c.9-4.35,1.7-8.73,2.73-13.05,3.25-13.6,6.52-27.2,9.97-40.75.66-2.6,1.91-5.15,3.35-7.45,2.93-4.7,6.16-5.81,11.4-4.03,5.05,1.72,9.67,4.27,13.13,8.49,2.66,3.26,2.84,7.06,1.85,10.95-1.48,5.74-4.85,10.45-8.53,14.95-6.86,8.38-13.79,16.7-20.67,25.08-2.61,3.18-5.02,6.51-7.74,9.58-.71.8-2.76,1.56-3.26,1.16-1-.79-1.38-2.38-1.94-3.67-.15-.34-.02-.8-.02-1.21-.09-.02-.18-.04-.27-.05Zm36.87-48.51c.17-2.29-.25-4.56-2.63-5.84-2.29-1.23-4.37-.24-6.12,1.21-4.92,4.07-7.98,9.34-9.51,15.5-.21.85-.17,1.86.07,2.71.52,1.85,1.74,2.95,3.8,2.7,6.44-.76,14.35-9.63,14.39-16.29Zm-19.78,29.33c-4.6.46-13.32,13.18-12.85,18.53,4.69-6.18,9.53-11.43,12.85-18.53Zm-.47-3.91c.32.16.64.32.96.48,1.07-1.98,2.14-3.96,3.21-5.93l-1.09-.58c-1.03,2.01-2.05,4.02-3.08,6.04Z"/>
  <path class="g" d="m220.57,294.71c-.45,1.51-.81,3.05-1.35,4.52-3.13,8.49-7.26,16.64-8.84,25.69-.13.76-1.42,1.32-2.17,1.97-.22-.86-.85-1.89-.58-2.56,2.48-6.27,5.12-12.48,7.71-18.71,1.54-3.7,3.08-7.4,4.61-11.11.21.07.41.14.62.21Z"/>
  <path class="g" d="m256.31,312.97c1.45,4.15,2.92,8.29,4.3,12.47.14.41-.34,1.03-.54,1.55-.5-.23-1.33-.36-1.45-.71-1.36-4.24-2.61-8.52-3.89-12.79.53-.17,1.05-.34,1.58-.51Z"/>
  <path class="g" d="m190.52,276.71c2.02-.62,4.05-1.23,6.07-1.85l-.03-.02c-3.53,1.94-7,4-10.61,5.78-4.15,2.04-8.42,3.83-12.9,5.25,1.36-1.03,2.73-2.06,4.09-3.09l-.03.02c.42-.21.84-.42,1.25-.63l-.03.02c.42-.21.83-.42,1.25-.63l-.04.02,1.26-.63-.04.02c.62-.21,1.25-.42,1.87-.63,0,0-.05.03-.05.03.22-.22.43-.43.65-.65,0,0-.04.03-.04.03.62-.21,1.25-.42,1.87-.63l-.04.02c.42-.21.84-.42,1.26-.63l-.04.02c.62-.21,1.25-.42,1.87-.63l-.04.02,2.48-1.24s-.03.03-.03.03Z"/>
  <path class="g" d="m177.14,282.77c-1.83.22-3.67.43-5.5.65-.07-.11-.13-.23-.2-.34.71-.42,1.39-.94,2.15-1.24,4.81-1.89,9.62-3.79,14.49-5.54.68-.24,1.62.26,2.44.42,0,0,.03-.03.03-.03-.83.41-1.65.83-2.48,1.24,0,0,.04-.02.04-.02-.62.21-1.25.42-1.87.63,0,0,.04-.02.04-.02-.42.21-.84.42-1.26.63,0,0,.04-.02.04-.02-.62.21-1.25.42-1.87.63,0,0,.04-.03.04-.03-.22.22-.43.43-.65.65,0,0,.05-.03.05-.03-.62.21-1.25.42-1.87.63,0,0,.04-.02.04-.02-.42.21-.84.42-1.26.63,0,0,.04-.02.04-.02-.42.21-.83.42-1.25.63,0,0,.03-.02.03-.02-.42.21-.84.42-1.25.63l.03-.02Z"/>
  <path class="g" d="m196.59,274.86c.09-.03.17-.06.26-.09-.09.02-.19.04-.28.07,0,0,.03.02.03.02Z"/>
  <path class="g" d="m185.99,246.73c-11.08.24-25.03-2.32-27.89-5.08,1.77-.26,3.13-.83,4.31-.57,7.88,1.78,15.73,3.74,23.58,5.65Z"/>
  <path class="g" d="m306.95,305.5c-6.94-4-12.65-9.04-18.75-13.52,4.62.87,18.72,10.72,18.75,13.52Z"/>
  <path class="b" d="m180.36,193.82c.75.28,2.52.61,3.89,1.52,4.52,2.99,8.31,6.66,10.27,11.94.83,2.24,2.33,4.25,3.09,6.51.4,1.19-.14,2.69-.26,4.05-1.23-.11-2.63.13-3.65-.4-4.64-2.41-9.44-4.66-13.67-7.69-3.41-2.44-6.17-5.86-5.98-10.63.14-3.36,2.01-5.23,6.3-5.31Zm9.61,13.57c1.52,2.12,3.05,4.23,4.57,6.35.35-.27.7-.54,1.05-.81-1.59-1.93-3.19-3.85-4.78-5.78-2.51-6.51-8.52-11.64-12.11-10.67,3.69,3.57,7.48,7.24,11.28,10.91Z"/>
  <path class="g" d="m206.53,227.85c-1.15-1.41-2.3-2.81-3.45-4.22.35-.28.69-.56,1.04-.84,1.19,1.44,2.39,2.88,3.58,4.31-.39.25-.78.49-1.16.74Z"/>
  <path class="b" d="m225.76,205c-.92-.97-1.43-1.33-1.72-1.83-3.76-6.35-6.05-13.15-6.15-20.6,0-.3-.02-.61.02-.91.38-3.13,3.21-6.59,5.58-6.83,2.52-.26,4.75,1.75,5.5,5.84,1.5,8.22.39,16.18-3.22,24.33Zm-.62-26.81c-.43.11-.85.22-1.28.33.51,2.22,1.02,4.44,1.53,6.66.43-.09.86-.18,1.29-.27.6-2.45-.02-4.66-1.54-6.71Z"/>
  <path class="g" d="m230.07,222.59c-1.63-3.9-3.25-7.81-4.88-11.71.46-.18.93-.36,1.39-.55,1.64,3.93,3.28,7.86,4.91,11.79-.48.16-.95.31-1.43.47Z"/>
  <path class="b" d="m301.5,265.11c-1.8-1.02-4.11-1.85-5.75-3.39-2.07-1.94-1.53-4.98,1.16-5.9,2.97-1.01,6.25-1.48,9.38-1.42,1.22.02,3.03,1.92,3.46,3.31.69,2.17.05,4.52-2.47,5.55-1.65.67-3.4,1.1-5.79,1.86Z"/>
  <path class="g" d="m305.62,216.38c-9.91,6.61-20.08,12.77-31.47,16.72,10.28-5.96,20.55-11.92,30.83-17.88.22.39.43.77.65,1.16Z"/>
  <path class="g" d="m277.05,229.22c1.52-1.13,2.98-2.36,4.57-3.38,5.72-3.63,11.47-7.19,17.23-10.76.45-.28,1-.41,1.5-.62.18.32.36.64.54.96-7.96,4.58-15.91,9.17-23.87,13.75,0,0,.03.03.03.03Z"/>
  <path class="g" d="m277.02,229.19c-.41.2-.83.4-1.24.59h0c.42-.18.84-.37,1.26-.56,0,0-.03-.03-.03-.03Z"/>
  <path class="g" d="m275.78,229.78s.01.01.01.01c0,0-.01-.01-.01-.01Z"/>
  <path class="b" d="m283.75,178.21c-.04,6.66-7.95,15.53-14.39,16.29-2.06.24-3.28-.86-3.8-2.7-.24-.85-.28-1.86-.07-2.71,1.53-6.16,4.59-11.44,9.51-15.5,1.75-1.45,3.83-2.44,6.12-1.21,2.38,1.28,2.79,3.55,2.63,5.84Z"/>
  <path class="g" d="m263.97,207.54c-3.32,7.11-8.16,12.35-12.85,18.53-.47-5.36,8.25-18.07,12.85-18.53Z"/>
  <path class="g" d="m263.5,203.63c1.03-2.01,2.05-4.02,3.08-6.04l1.09.58c-1.07,1.98-2.14,3.96-3.21,5.93-.32-.16-.64-.32-.96-.48Z"/>
  <path class="h" d="m188.07,277.93c.83-.41,1.65-.83,2.48-1.24l-2.48,1.24Z"/>
  <path class="h" d="m186.24,278.53c.62-.21,1.25-.42,1.87-.63-.62.21-1.25.42-1.87.63Z"/>
  <path class="h" d="m183.19,279.75c.62-.21,1.25-.42,1.87-.63-.62.21-1.25.42-1.87.63Z"/>
  <path class="h" d="m180.76,280.96c.62-.21,1.25-.42,1.87-.63-.62.21-1.25.42-1.87.63Z"/>
  <path class="h" d="m177.11,282.79c.42-.21.84-.42,1.25-.63-.42.21-.84.42-1.25.63Z"/>
  <path class="h" d="m185.02,279.14c.42-.21.84-.42,1.26-.63-.42.21-.84.42-1.26.63Z"/>
  <path class="h" d="m179.54,281.57c.42-.21.84-.42,1.26-.63-.42.21-.84.42-1.26.63Z"/>
  <path class="h" d="m178.32,282.18c.42-.21.83-.42,1.25-.63-.42.21-.83.42-1.25.63Z"/>
  <path class="h" d="m182.58,280.37c.22-.22.43-.43.65-.65-.22.22-.43.43-.65.65Z"/>
  <path class="c" d="m189.97,207.39c-3.79-3.67-7.59-7.34-11.28-10.91,3.59-.97,9.6,4.16,12.11,10.67-.28.08-.56.16-.83.25Z"/>
  <path class="f" d="m189.97,207.39c.28-.08.55-.16.83-.25,1.6,1.93,3.19,3.85,4.78,5.78-.35.27-.7.54-1.05.81-1.52-2.12-3.05-4.23-4.57-6.35Z"/>
  <path class="c" d="m225.14,178.2c1.51,2.05,2.14,4.26,1.54,6.71-.43.09-.86.18-1.29.27-.51-2.22-1.02-4.44-1.53-6.66.43-.11.85-.22,1.28-.33Z"/>
</svg>